%TF.GenerationSoftware,KiCad,Pcbnew,7.0.1*%
%TF.CreationDate,2024-03-26T16:50:52+03:00*%
%TF.ProjectId,Pelt,50656c74-2e6b-4696-9361-645f70636258,rev?*%
%TF.SameCoordinates,Original*%
%TF.FileFunction,Soldermask,Top*%
%TF.FilePolarity,Negative*%
%FSLAX46Y46*%
G04 Gerber Fmt 4.6, Leading zero omitted, Abs format (unit mm)*
G04 Created by KiCad (PCBNEW 7.0.1) date 2024-03-26 16:50:52*
%MOMM*%
%LPD*%
G01*
G04 APERTURE LIST*
G04 Aperture macros list*
%AMRoundRect*
0 Rectangle with rounded corners*
0 $1 Rounding radius*
0 $2 $3 $4 $5 $6 $7 $8 $9 X,Y pos of 4 corners*
0 Add a 4 corners polygon primitive as box body*
4,1,4,$2,$3,$4,$5,$6,$7,$8,$9,$2,$3,0*
0 Add four circle primitives for the rounded corners*
1,1,$1+$1,$2,$3*
1,1,$1+$1,$4,$5*
1,1,$1+$1,$6,$7*
1,1,$1+$1,$8,$9*
0 Add four rect primitives between the rounded corners*
20,1,$1+$1,$2,$3,$4,$5,0*
20,1,$1+$1,$4,$5,$6,$7,0*
20,1,$1+$1,$6,$7,$8,$9,0*
20,1,$1+$1,$8,$9,$2,$3,0*%
G04 Aperture macros list end*
%ADD10RoundRect,0.250000X-0.350000X-0.625000X0.350000X-0.625000X0.350000X0.625000X-0.350000X0.625000X0*%
%ADD11O,1.200000X1.750000*%
%ADD12RoundRect,0.225000X-0.225000X-0.250000X0.225000X-0.250000X0.225000X0.250000X-0.225000X0.250000X0*%
%ADD13RoundRect,0.200000X-0.275000X0.200000X-0.275000X-0.200000X0.275000X-0.200000X0.275000X0.200000X0*%
%ADD14RoundRect,0.050000X-0.375000X-0.050000X0.375000X-0.050000X0.375000X0.050000X-0.375000X0.050000X0*%
%ADD15RoundRect,0.050000X-0.050000X-0.375000X0.050000X-0.375000X0.050000X0.375000X-0.050000X0.375000X0*%
%ADD16R,1.650000X1.650000*%
%ADD17C,6.400000*%
%ADD18RoundRect,0.250000X1.500000X0.550000X-1.500000X0.550000X-1.500000X-0.550000X1.500000X-0.550000X0*%
%ADD19R,4.200000X1.400000*%
%ADD20RoundRect,0.250000X-1.550000X0.650000X-1.550000X-0.650000X1.550000X-0.650000X1.550000X0.650000X0*%
%ADD21O,3.600000X1.800000*%
%ADD22RoundRect,0.200000X-0.200000X-0.275000X0.200000X-0.275000X0.200000X0.275000X-0.200000X0.275000X0*%
%ADD23RoundRect,0.200000X0.275000X-0.200000X0.275000X0.200000X-0.275000X0.200000X-0.275000X-0.200000X0*%
%ADD24RoundRect,0.250000X0.550000X-1.500000X0.550000X1.500000X-0.550000X1.500000X-0.550000X-1.500000X0*%
%ADD25RoundRect,0.225000X-0.250000X0.225000X-0.250000X-0.225000X0.250000X-0.225000X0.250000X0.225000X0*%
%ADD26RoundRect,0.225000X0.250000X-0.225000X0.250000X0.225000X-0.250000X0.225000X-0.250000X-0.225000X0*%
%ADD27RoundRect,0.150000X0.512500X0.150000X-0.512500X0.150000X-0.512500X-0.150000X0.512500X-0.150000X0*%
%ADD28RoundRect,0.250000X1.000000X-1.500000X1.000000X1.500000X-1.000000X1.500000X-1.000000X-1.500000X0*%
%ADD29RoundRect,0.100000X-0.100000X0.712500X-0.100000X-0.712500X0.100000X-0.712500X0.100000X0.712500X0*%
%ADD30RoundRect,0.150000X-0.825000X-0.150000X0.825000X-0.150000X0.825000X0.150000X-0.825000X0.150000X0*%
%ADD31RoundRect,0.150000X0.587500X0.150000X-0.587500X0.150000X-0.587500X-0.150000X0.587500X-0.150000X0*%
%ADD32RoundRect,0.218750X-0.256250X0.218750X-0.256250X-0.218750X0.256250X-0.218750X0.256250X0.218750X0*%
%ADD33R,2.500000X2.500000*%
%ADD34O,2.500000X2.500000*%
%ADD35RoundRect,0.150000X-0.150000X0.512500X-0.150000X-0.512500X0.150000X-0.512500X0.150000X0.512500X0*%
%ADD36R,2.514000X3.200000*%
%ADD37RoundRect,0.150000X-0.662500X-0.150000X0.662500X-0.150000X0.662500X0.150000X-0.662500X0.150000X0*%
%ADD38RoundRect,0.250000X-1.000000X1.400000X-1.000000X-1.400000X1.000000X-1.400000X1.000000X1.400000X0*%
%ADD39RoundRect,0.250000X-1.000000X1.500000X-1.000000X-1.500000X1.000000X-1.500000X1.000000X1.500000X0*%
%ADD40R,1.600000X1.600000*%
%ADD41C,1.600000*%
%ADD42RoundRect,0.225000X0.225000X0.250000X-0.225000X0.250000X-0.225000X-0.250000X0.225000X-0.250000X0*%
%ADD43R,3.000000X3.050000*%
%ADD44R,2.400000X2.250000*%
%ADD45R,1.700000X1.700000*%
%ADD46O,1.700000X1.700000*%
%ADD47RoundRect,0.250000X1.550000X-0.650000X1.550000X0.650000X-1.550000X0.650000X-1.550000X-0.650000X0*%
%ADD48RoundRect,0.150000X0.150000X-0.825000X0.150000X0.825000X-0.150000X0.825000X-0.150000X-0.825000X0*%
G04 APERTURE END LIST*
D10*
%TO.C,J3*%
X129500000Y-83500000D03*
D11*
X131500000Y-83500000D03*
X133500000Y-83500000D03*
X135500000Y-83500000D03*
%TD*%
D12*
%TO.C,C22*%
X160950000Y-79775000D03*
X162500000Y-79775000D03*
%TD*%
D13*
%TO.C,R9*%
X134232621Y-78161579D03*
X134232621Y-79811579D03*
%TD*%
D14*
%TO.C,IC1*%
X148840000Y-79835000D03*
X148840000Y-80235000D03*
X148840000Y-80635000D03*
X148840000Y-81035000D03*
X148840000Y-81435000D03*
D15*
X149490000Y-82085000D03*
X149890000Y-82085000D03*
X150290000Y-82085000D03*
X150690000Y-82085000D03*
X151090000Y-82085000D03*
D14*
X151740000Y-81435000D03*
X151740000Y-81035000D03*
X151740000Y-80635000D03*
X151740000Y-80235000D03*
X151740000Y-79835000D03*
D15*
X151090000Y-79185000D03*
X150690000Y-79185000D03*
X150290000Y-79185000D03*
X149890000Y-79185000D03*
X149490000Y-79185000D03*
D16*
X150290000Y-80635000D03*
%TD*%
D17*
%TO.C,REF\u002A\u002A*%
X181000000Y-82250000D03*
%TD*%
D18*
%TO.C,C1*%
X182700000Y-62750000D03*
X177300000Y-62750000D03*
%TD*%
D12*
%TO.C,C18*%
X166075000Y-79825000D03*
X164525000Y-79825000D03*
%TD*%
D19*
%TO.C,L1*%
X181750000Y-73650000D03*
X181750000Y-77350000D03*
%TD*%
D20*
%TO.C,J4*%
X109257500Y-51227500D03*
D21*
X109257500Y-55037500D03*
%TD*%
D22*
%TO.C,R6*%
X153700000Y-81525000D03*
X155350000Y-81525000D03*
%TD*%
D23*
%TO.C,R1*%
X178850000Y-71975000D03*
X178850000Y-70325000D03*
%TD*%
%TO.C,R2*%
X178850000Y-68750000D03*
X178850000Y-67100000D03*
%TD*%
D13*
%TO.C,R11*%
X149500000Y-83725000D03*
X149500000Y-85375000D03*
%TD*%
D24*
%TO.C,C4*%
X173882214Y-76450000D03*
X173882214Y-71050000D03*
%TD*%
D25*
%TO.C,C24*%
X137250000Y-78200000D03*
X137250000Y-79750000D03*
%TD*%
D26*
%TO.C,C17*%
X167600000Y-80975000D03*
X167600000Y-79425000D03*
%TD*%
%TO.C,C9*%
X160750000Y-55000000D03*
X160750000Y-53450000D03*
%TD*%
D27*
%TO.C,U3*%
X171525000Y-81200000D03*
X171525000Y-80250000D03*
X171525000Y-79300000D03*
X169250000Y-79300000D03*
X169250000Y-81200000D03*
%TD*%
D28*
%TO.C,C5*%
X171000000Y-48750000D03*
X171000000Y-42250000D03*
%TD*%
D29*
%TO.C,IC2*%
X159225000Y-79862500D03*
X158575000Y-79862500D03*
X157925000Y-79862500D03*
X157275000Y-79862500D03*
X157275000Y-84087500D03*
X157925000Y-84087500D03*
X158575000Y-84087500D03*
X159225000Y-84087500D03*
%TD*%
D30*
%TO.C,U6*%
X139275000Y-81435000D03*
X139275000Y-82705000D03*
X139275000Y-83975000D03*
X139275000Y-85245000D03*
X144225000Y-85245000D03*
X144225000Y-83975000D03*
X144225000Y-82705000D03*
X144225000Y-81435000D03*
%TD*%
D31*
%TO.C,Q1*%
X131622141Y-73929649D03*
X131622141Y-72029649D03*
X129747141Y-72979649D03*
%TD*%
D26*
%TO.C,C3*%
X178250000Y-77525000D03*
X178250000Y-75975000D03*
%TD*%
D13*
%TO.C,R12*%
X151000000Y-83725000D03*
X151000000Y-85375000D03*
%TD*%
D32*
%TO.C,D1*%
X135732621Y-78199079D03*
X135732621Y-79774079D03*
%TD*%
D25*
%TO.C,C13*%
X154950000Y-53750000D03*
X154950000Y-55300000D03*
%TD*%
D33*
%TO.C,K1*%
X125000000Y-66750000D03*
D34*
X125000000Y-51750000D03*
X125000000Y-46750000D03*
X125000000Y-41750000D03*
X117500000Y-41750000D03*
X117500000Y-46750000D03*
X117500000Y-51750000D03*
X117500000Y-66750000D03*
%TD*%
D35*
%TO.C,U2*%
X182650000Y-68975000D03*
X181700000Y-68975000D03*
X180750000Y-68975000D03*
X180750000Y-71250000D03*
X182650000Y-71250000D03*
%TD*%
D25*
%TO.C,C25*%
X147250000Y-80450000D03*
X147250000Y-82000000D03*
%TD*%
D36*
%TO.C,U1*%
X157862500Y-49905000D03*
D37*
X160500000Y-48000000D03*
X160500000Y-49270000D03*
X160500000Y-50540000D03*
X160500000Y-51810000D03*
X155225000Y-51810000D03*
X155225000Y-50540000D03*
X155225000Y-49270000D03*
X155225000Y-48000000D03*
%TD*%
D38*
%TO.C,D2*%
X124650000Y-72750000D03*
X117850000Y-72750000D03*
%TD*%
D39*
%TO.C,C6*%
X171000000Y-53500000D03*
X171000000Y-60000000D03*
%TD*%
D22*
%TO.C,R10*%
X153700000Y-84525000D03*
X155350000Y-84525000D03*
%TD*%
D17*
%TO.C,REF\u002A\u002A*%
X110000000Y-82250000D03*
%TD*%
D13*
%TO.C,R14*%
X133500000Y-72175000D03*
X133500000Y-73825000D03*
%TD*%
D40*
%TO.C,C1*%
X173882214Y-74932380D03*
D41*
X173882214Y-72432380D03*
%TD*%
D40*
%TO.C,C12*%
X132500000Y-47902651D03*
D41*
X132500000Y-42902651D03*
%TD*%
D22*
%TO.C,R5*%
X160600000Y-61000000D03*
X162250000Y-61000000D03*
%TD*%
D40*
%TO.C,C11*%
X132500000Y-54347349D03*
D41*
X132500000Y-59347349D03*
%TD*%
D23*
%TO.C,R13*%
X135020940Y-73825443D03*
X135020940Y-72175443D03*
%TD*%
D42*
%TO.C,C21*%
X162500000Y-81525000D03*
X160950000Y-81525000D03*
%TD*%
D23*
%TO.C,R4*%
X153250000Y-55400000D03*
X153250000Y-53750000D03*
%TD*%
D43*
%TO.C,L2*%
X149000000Y-44250000D03*
X140000000Y-44250000D03*
D44*
X144400000Y-57100000D03*
%TD*%
D39*
%TO.C,C11*%
X132500000Y-53500000D03*
X132500000Y-60000000D03*
%TD*%
D42*
%TO.C,C2*%
X182700000Y-67225000D03*
X181150000Y-67225000D03*
%TD*%
D40*
%TO.C,C1*%
X181182379Y-62750000D03*
D41*
X178682379Y-62750000D03*
%TD*%
D45*
%TO.C,J2*%
X149425000Y-76500000D03*
D46*
X151965000Y-76500000D03*
X154505000Y-76500000D03*
%TD*%
D42*
%TO.C,C20*%
X158300000Y-69975000D03*
X156750000Y-69975000D03*
%TD*%
D12*
%TO.C,C8*%
X153625000Y-46200000D03*
X155175000Y-46200000D03*
%TD*%
D42*
%TO.C,C10*%
X139275000Y-41400000D03*
X137725000Y-41400000D03*
%TD*%
D17*
%TO.C,REF\u002A\u002A*%
X110000000Y-44000000D03*
%TD*%
%TO.C,REF\u002A\u002A*%
X181000000Y-44000000D03*
%TD*%
D40*
%TO.C,C5*%
X171000000Y-47902651D03*
D41*
X171000000Y-42902651D03*
%TD*%
D22*
%TO.C,R8*%
X153700000Y-83025000D03*
X155350000Y-83025000D03*
%TD*%
D28*
%TO.C,C12*%
X132500000Y-48750000D03*
X132500000Y-42250000D03*
%TD*%
D12*
%TO.C,C19*%
X164350000Y-74575000D03*
X165900000Y-74575000D03*
%TD*%
D47*
%TO.C,J1*%
X181492500Y-55922500D03*
D21*
X181492500Y-52112500D03*
%TD*%
D40*
%TO.C,C6*%
X171000000Y-54347349D03*
D41*
X171000000Y-59347349D03*
%TD*%
D12*
%TO.C,C15*%
X164525000Y-81325000D03*
X166075000Y-81325000D03*
%TD*%
D23*
%TO.C,R7*%
X159750000Y-70075000D03*
X159750000Y-68425000D03*
%TD*%
D22*
%TO.C,R3*%
X157350000Y-61000000D03*
X159000000Y-61000000D03*
%TD*%
D12*
%TO.C,C7*%
X163625000Y-47200000D03*
X165175000Y-47200000D03*
%TD*%
%TO.C,C23*%
X143788871Y-79725000D03*
X145338871Y-79725000D03*
%TD*%
%TO.C,C14*%
X163650000Y-50800000D03*
X165200000Y-50800000D03*
%TD*%
D48*
%TO.C,U5*%
X157190000Y-77000000D03*
X158460000Y-77000000D03*
X159730000Y-77000000D03*
X161000000Y-77000000D03*
X161000000Y-72050000D03*
X159730000Y-72050000D03*
X158460000Y-72050000D03*
X157190000Y-72050000D03*
%TD*%
D31*
%TO.C,U4*%
X165837500Y-78275000D03*
X165837500Y-76375000D03*
X163962500Y-77325000D03*
%TD*%
D26*
%TO.C,C16*%
X173500000Y-81000000D03*
X173500000Y-79450000D03*
%TD*%
M02*
