M48
; DRILL file {KiCad 7.0.1} date Tue Mar 26 16:50:34 2024
; FORMAT={-:-/ absolute / metric / decimal}
; #@! TF.CreationDate,2024-03-26T16:50:34+03:00
; #@! TF.GenerationSoftware,Kicad,Pcbnew,7.0.1
; #@! TF.FileFunction,Plated,1,4,PTH
FMAT,2
METRIC
; #@! TA.AperFunction,Plated,PTH,ViaDrill
T1C0.250
; #@! TA.AperFunction,Plated,PTH,ComponentDrill
T2C0.250
; #@! TA.AperFunction,Plated,PTH,ComponentDrill
T3C0.750
; #@! TA.AperFunction,Plated,PTH,ComponentDrill
T4C0.800
; #@! TA.AperFunction,Plated,PTH,ComponentDrill
T5C1.000
; #@! TA.AperFunction,Plated,PTH,ComponentDrill
T6C1.200
; #@! TA.AperFunction,Plated,PTH,ComponentDrill
T7C1.500
; #@! TA.AperFunction,Plated,PTH,ComponentDrill
T8C3.200
%
G90
G05
T1
X139.0Y-78.25
X145.3Y-78.5
X146.75Y-83.25
X146.75Y-85.5
X148.5Y-85.3
X150.0Y-50.5
X150.0Y-52.0
X150.0Y-53.5
X150.0Y-55.0
X150.0Y-56.5
X150.0Y-58.0
X150.0Y-59.5
X150.0Y-62.5
X150.0Y-64.0
X150.29Y-80.635
X151.5Y-50.5
X151.5Y-52.0
X151.5Y-53.5
X151.5Y-55.0
X151.5Y-56.5
X151.5Y-58.0
X151.5Y-59.5
X151.5Y-62.5
X151.5Y-64.0
X153.0Y-56.5
X153.0Y-58.0
X153.0Y-59.5
X153.0Y-62.5
X153.0Y-64.0
X154.5Y-56.5
X154.5Y-58.0
X154.5Y-59.5
X154.5Y-62.5
X154.5Y-64.0
X156.0Y-41.0
X156.0Y-42.5
X156.0Y-44.0
X156.0Y-45.5
X156.0Y-47.0
X156.0Y-53.5
X156.0Y-55.0
X156.0Y-56.5
X156.0Y-58.0
X156.0Y-59.5
X156.0Y-62.5
X156.0Y-64.0
X157.5Y-41.0
X157.5Y-42.5
X157.5Y-44.0
X157.5Y-45.5
X157.5Y-47.0
X157.5Y-52.0
X157.5Y-53.5
X157.5Y-55.0
X157.5Y-56.5
X157.5Y-58.0
X157.5Y-62.5
X157.5Y-64.0
X158.0Y-68.75
X159.0Y-41.0
X159.0Y-42.5
X159.0Y-44.0
X159.0Y-45.5
X159.0Y-47.0
X159.0Y-52.0
X159.0Y-53.5
X159.0Y-55.0
X159.0Y-56.5
X159.0Y-58.0
X160.5Y-41.0
X160.5Y-42.5
X160.5Y-44.0
X160.5Y-45.5
X161.0Y-62.5
X161.0Y-64.0
X161.0Y-79.0
X161.104Y-56.527
X161.104Y-58.027
X162.0Y-41.0
X162.0Y-42.5
X162.0Y-44.0
X162.0Y-45.5
X162.5Y-52.0
X162.5Y-53.5
X162.5Y-55.0
X162.5Y-56.5
X162.5Y-58.0
X162.5Y-59.5
X162.5Y-62.5
X162.5Y-64.0
X163.5Y-41.0
X163.5Y-42.5
X163.5Y-44.0
X163.5Y-45.5
X164.0Y-52.0
X164.0Y-53.5
X164.0Y-55.0
X164.0Y-56.5
X164.0Y-58.0
X164.0Y-59.5
X164.0Y-61.0
X164.0Y-62.5
X164.0Y-64.0
X165.0Y-41.0
X165.0Y-42.5
X165.0Y-44.0
X165.0Y-45.5
X165.5Y-52.0
X165.5Y-53.5
X165.5Y-55.0
X165.5Y-56.5
X165.5Y-58.0
X165.5Y-59.5
X165.5Y-61.0
X165.5Y-62.5
X165.5Y-64.0
X166.5Y-41.0
X166.5Y-42.5
X166.5Y-44.0
X166.5Y-45.5
X167.0Y-56.5
X167.0Y-58.0
X167.0Y-59.5
X167.0Y-61.0
X167.0Y-62.5
X167.0Y-64.0
X167.5Y-82.25
X168.0Y-41.0
X168.0Y-42.5
X168.0Y-44.0
X168.0Y-45.5
X168.5Y-56.5
X168.5Y-58.0
X168.5Y-59.5
X168.5Y-61.0
X168.5Y-62.5
X168.5Y-64.0
X170.0Y-64.0
X170.8Y-76.4
X171.5Y-64.0
T2
X157.162Y-48.905
X157.162Y-49.905
X157.162Y-50.905
X158.562Y-48.905
X158.562Y-49.905
X158.562Y-50.905
T3
X129.5Y-83.5
X131.5Y-83.5
X133.5Y-83.5
X135.5Y-83.5
T4
X132.5Y-42.903
X132.5Y-47.903
X132.5Y-54.347
X132.5Y-59.347
X171.0Y-42.903
X171.0Y-47.903
X171.0Y-54.347
X171.0Y-59.347
X173.882Y-72.432
X173.882Y-74.932
X178.682Y-62.75
X181.182Y-62.75
T5
X149.425Y-76.5
X151.965Y-76.5
X154.505Y-76.5
T6
X109.257Y-51.227
X109.257Y-55.037
X181.492Y-52.112
X181.492Y-55.922
T7
X117.5Y-41.75
X117.5Y-46.75
X117.5Y-51.75
X117.5Y-66.75
X125.0Y-41.75
X125.0Y-46.75
X125.0Y-51.75
X125.0Y-66.75
T8
X110.0Y-44.0
X110.0Y-82.25
X181.0Y-44.0
X181.0Y-82.25
T0
M30
