%TF.GenerationSoftware,KiCad,Pcbnew,7.0.1*%
%TF.CreationDate,2024-03-26T16:50:52+03:00*%
%TF.ProjectId,Pelt,50656c74-2e6b-4696-9361-645f70636258,rev?*%
%TF.SameCoordinates,Original*%
%TF.FileFunction,Copper,L3,Inr*%
%TF.FilePolarity,Positive*%
%FSLAX46Y46*%
G04 Gerber Fmt 4.6, Leading zero omitted, Abs format (unit mm)*
G04 Created by KiCad (PCBNEW 7.0.1) date 2024-03-26 16:50:52*
%MOMM*%
%LPD*%
G01*
G04 APERTURE LIST*
G04 Aperture macros list*
%AMRoundRect*
0 Rectangle with rounded corners*
0 $1 Rounding radius*
0 $2 $3 $4 $5 $6 $7 $8 $9 X,Y pos of 4 corners*
0 Add a 4 corners polygon primitive as box body*
4,1,4,$2,$3,$4,$5,$6,$7,$8,$9,$2,$3,0*
0 Add four circle primitives for the rounded corners*
1,1,$1+$1,$2,$3*
1,1,$1+$1,$4,$5*
1,1,$1+$1,$6,$7*
1,1,$1+$1,$8,$9*
0 Add four rect primitives between the rounded corners*
20,1,$1+$1,$2,$3,$4,$5,0*
20,1,$1+$1,$4,$5,$6,$7,0*
20,1,$1+$1,$6,$7,$8,$9,0*
20,1,$1+$1,$8,$9,$2,$3,0*%
G04 Aperture macros list end*
%TA.AperFunction,ComponentPad*%
%ADD10RoundRect,0.250000X-0.350000X-0.625000X0.350000X-0.625000X0.350000X0.625000X-0.350000X0.625000X0*%
%TD*%
%TA.AperFunction,ComponentPad*%
%ADD11O,1.200000X1.750000*%
%TD*%
%TA.AperFunction,ComponentPad*%
%ADD12C,6.400000*%
%TD*%
%TA.AperFunction,ComponentPad*%
%ADD13RoundRect,0.250000X-1.550000X0.650000X-1.550000X-0.650000X1.550000X-0.650000X1.550000X0.650000X0*%
%TD*%
%TA.AperFunction,ComponentPad*%
%ADD14O,3.600000X1.800000*%
%TD*%
%TA.AperFunction,ComponentPad*%
%ADD15R,2.500000X2.500000*%
%TD*%
%TA.AperFunction,ComponentPad*%
%ADD16O,2.500000X2.500000*%
%TD*%
%TA.AperFunction,ComponentPad*%
%ADD17C,0.550000*%
%TD*%
%TA.AperFunction,ComponentPad*%
%ADD18R,1.600000X1.600000*%
%TD*%
%TA.AperFunction,ComponentPad*%
%ADD19C,1.600000*%
%TD*%
%TA.AperFunction,ComponentPad*%
%ADD20R,1.700000X1.700000*%
%TD*%
%TA.AperFunction,ComponentPad*%
%ADD21O,1.700000X1.700000*%
%TD*%
%TA.AperFunction,ComponentPad*%
%ADD22RoundRect,0.250000X1.550000X-0.650000X1.550000X0.650000X-1.550000X0.650000X-1.550000X-0.650000X0*%
%TD*%
%TA.AperFunction,ViaPad*%
%ADD23C,0.550000*%
%TD*%
%TA.AperFunction,Conductor*%
%ADD24C,0.200000*%
%TD*%
G04 APERTURE END LIST*
D10*
%TO.N,Net-(D1-A)*%
%TO.C,J3*%
X129500000Y-83500000D03*
D11*
%TO.N,Net-(J3-Pin_2)*%
X131500000Y-83500000D03*
%TO.N,Net-(J3-Pin_3)*%
X133500000Y-83500000D03*
%TO.N,Net-(J3-Pin_4)*%
X135500000Y-83500000D03*
%TD*%
D12*
%TO.N,N/C*%
%TO.C,REF\u002A\u002A*%
X181000000Y-82250000D03*
%TD*%
D13*
%TO.N,/Plus*%
%TO.C,J4*%
X109257500Y-51227500D03*
D14*
%TO.N,/Minus*%
X109257500Y-55037500D03*
%TD*%
D15*
%TO.N,+5.5V*%
%TO.C,K1*%
X125000000Y-66750000D03*
D16*
%TO.N,/Plus*%
X125000000Y-51750000D03*
%TO.N,/V_out*%
X125000000Y-46750000D03*
%TO.N,/Minus*%
X125000000Y-41750000D03*
%TO.N,/Plus*%
X117500000Y-41750000D03*
%TO.N,GND*%
X117500000Y-46750000D03*
%TO.N,/Minus*%
X117500000Y-51750000D03*
%TO.N,Net-(D2-A)*%
X117500000Y-66750000D03*
%TD*%
D17*
%TO.N,GND*%
%TO.C,U1*%
X158562500Y-50905000D03*
X158562500Y-49905000D03*
X158562500Y-48905000D03*
X157162500Y-50905000D03*
X157162500Y-49905000D03*
X157162500Y-48905000D03*
%TD*%
D12*
%TO.N,N/C*%
%TO.C,REF\u002A\u002A*%
X110000000Y-82250000D03*
%TD*%
D18*
%TO.N,+5.5V*%
%TO.C,C1*%
X173882214Y-74932380D03*
D19*
%TO.N,GND*%
X173882214Y-72432380D03*
%TD*%
D18*
%TO.N,/V_out*%
%TO.C,C12*%
X132500000Y-47902651D03*
D19*
%TO.N,GND*%
X132500000Y-42902651D03*
%TD*%
D18*
%TO.N,/V_out*%
%TO.C,C11*%
X132500000Y-54347349D03*
D19*
%TO.N,GND*%
X132500000Y-59347349D03*
%TD*%
D18*
%TO.N,Vin*%
%TO.C,C1*%
X181182379Y-62750000D03*
D19*
%TO.N,GND*%
X178682379Y-62750000D03*
%TD*%
D20*
%TO.N,+5V*%
%TO.C,J2*%
X149425000Y-76500000D03*
D21*
%TO.N,Net-(IC1-PD1)*%
X151965000Y-76500000D03*
%TO.N,GND*%
X154505000Y-76500000D03*
%TD*%
D12*
%TO.N,N/C*%
%TO.C,REF\u002A\u002A*%
X110000000Y-44000000D03*
%TD*%
%TO.N,N/C*%
%TO.C,REF\u002A\u002A*%
X181000000Y-44000000D03*
%TD*%
D18*
%TO.N,Vin*%
%TO.C,C5*%
X171000000Y-47902651D03*
D19*
%TO.N,GND*%
X171000000Y-42902651D03*
%TD*%
D22*
%TO.N,Vin*%
%TO.C,J1*%
X181492500Y-55922500D03*
D14*
%TO.N,GND*%
X181492500Y-52112500D03*
%TD*%
D18*
%TO.N,Vin*%
%TO.C,C6*%
X171000000Y-54347349D03*
D19*
%TO.N,GND*%
X171000000Y-59347349D03*
%TD*%
D23*
%TO.N,GND*%
X150290000Y-80635000D03*
X165500000Y-53500000D03*
X159000000Y-41000000D03*
X156000000Y-62500000D03*
X166500000Y-41000000D03*
X165500000Y-58000000D03*
X156000000Y-44000000D03*
X164000000Y-61000000D03*
X156000000Y-56500000D03*
X150000000Y-64000000D03*
X156000000Y-55000000D03*
X154500000Y-58000000D03*
X168000000Y-45500000D03*
X161000000Y-64000000D03*
X163500000Y-41000000D03*
X151500000Y-52000000D03*
X168500000Y-56500000D03*
X157500000Y-42500000D03*
X150000000Y-50500000D03*
X151500000Y-53500000D03*
X157500000Y-44000000D03*
X162500000Y-53500000D03*
X157500000Y-53500000D03*
X164000000Y-59500000D03*
X168500000Y-61000000D03*
X151500000Y-59500000D03*
X166500000Y-42500000D03*
X146750000Y-83250000D03*
X159000000Y-44000000D03*
X161000000Y-62500000D03*
X162500000Y-52000000D03*
X167000000Y-61000000D03*
X164000000Y-64000000D03*
X154500000Y-62500000D03*
X163500000Y-44000000D03*
X164000000Y-56500000D03*
X167000000Y-64000000D03*
X162500000Y-62500000D03*
X163500000Y-45500000D03*
X165500000Y-59500000D03*
X165500000Y-52000000D03*
X159000000Y-58000000D03*
X151500000Y-62500000D03*
X159000000Y-53500000D03*
X162000000Y-41000000D03*
X157500000Y-45500000D03*
X162500000Y-55000000D03*
X150000000Y-58000000D03*
X156000000Y-41000000D03*
X156000000Y-42500000D03*
X159000000Y-56500000D03*
X157500000Y-56500000D03*
X157500000Y-55000000D03*
X165000000Y-41000000D03*
X146750000Y-85500000D03*
X164000000Y-62500000D03*
X150000000Y-55000000D03*
X162000000Y-45500000D03*
X162500000Y-58000000D03*
X159000000Y-55000000D03*
X165500000Y-56500000D03*
X156000000Y-58000000D03*
X162500000Y-56500000D03*
X168500000Y-64000000D03*
X157500000Y-52000000D03*
X168500000Y-59500000D03*
X167000000Y-56500000D03*
X168500000Y-58000000D03*
X164000000Y-53500000D03*
X164000000Y-52000000D03*
X160500000Y-44000000D03*
X170000000Y-64000000D03*
X159000000Y-42500000D03*
X165500000Y-62500000D03*
X168000000Y-41000000D03*
X162500000Y-64000000D03*
X168000000Y-44000000D03*
X154500000Y-64000000D03*
X151500000Y-64000000D03*
X160500000Y-41000000D03*
X165500000Y-55000000D03*
X154500000Y-59500000D03*
X150000000Y-56500000D03*
X153000000Y-62500000D03*
X164000000Y-55000000D03*
X156000000Y-53500000D03*
X165500000Y-64000000D03*
X157500000Y-41000000D03*
X156000000Y-45500000D03*
X165000000Y-45500000D03*
X171500000Y-64000000D03*
X153000000Y-56500000D03*
X159000000Y-52000000D03*
X168000000Y-42500000D03*
X150000000Y-53500000D03*
X159000000Y-45500000D03*
X167000000Y-62500000D03*
X163500000Y-42500000D03*
X151500000Y-58000000D03*
X166500000Y-45500000D03*
X160500000Y-45500000D03*
X165000000Y-44000000D03*
X162000000Y-44000000D03*
X157500000Y-58000000D03*
X151500000Y-55000000D03*
X150000000Y-59500000D03*
X151500000Y-56500000D03*
X153000000Y-64000000D03*
X151500000Y-50500000D03*
X168500000Y-62500000D03*
X167000000Y-59500000D03*
X153000000Y-58000000D03*
X161104278Y-58026736D03*
X154500000Y-56500000D03*
X157500000Y-47000000D03*
X166500000Y-44000000D03*
X150000000Y-62500000D03*
X167000000Y-58000000D03*
X162500000Y-59500000D03*
X159000000Y-47000000D03*
X160500000Y-42500000D03*
X157500000Y-62500000D03*
X153000000Y-59500000D03*
X165000000Y-42500000D03*
X150000000Y-52000000D03*
X165500000Y-61000000D03*
X162000000Y-42500000D03*
X164000000Y-58000000D03*
X161104278Y-56526736D03*
X156000000Y-64000000D03*
X156000000Y-47000000D03*
%TO.N,+5.5V*%
X170800000Y-76400000D03*
%TO.N,+5V*%
X145300000Y-78500000D03*
X148500000Y-85300000D03*
X167500000Y-82250000D03*
X161000000Y-79000000D03*
X158000000Y-68750000D03*
%TO.N,Net-(J3-Pin_4)*%
X139000000Y-78250000D03*
%TO.N,SHDWN*%
X156000000Y-59500000D03*
X157500000Y-64000000D03*
%TD*%
D24*
%TO.N,+5V*%
X149425000Y-76500000D02*
X147300000Y-76500000D01*
X160600000Y-75350000D02*
X157000000Y-75350000D01*
X148500000Y-85300000D02*
X148500000Y-81700000D01*
X148500000Y-81700000D02*
X145300000Y-78500000D01*
X163500000Y-78250000D02*
X161750000Y-78250000D01*
X157000000Y-69750000D02*
X158000000Y-68750000D01*
X150575000Y-75350000D02*
X149425000Y-76500000D01*
X157000000Y-75350000D02*
X157000000Y-69750000D01*
X161750000Y-78250000D02*
X161000000Y-79000000D01*
X167500000Y-82250000D02*
X163500000Y-78250000D01*
X163500000Y-78250000D02*
X160600000Y-75350000D01*
X157000000Y-75350000D02*
X150575000Y-75350000D01*
X147300000Y-76500000D02*
X145300000Y-78500000D01*
%TD*%
%TA.AperFunction,Conductor*%
%TO.N,GND*%
G36*
X116875882Y-40167456D02*
G01*
X116921355Y-40213687D01*
X116937274Y-40276550D01*
X116919285Y-40338852D01*
X116872310Y-40383554D01*
X116749013Y-40450278D01*
X116676485Y-40489529D01*
X116480259Y-40642259D01*
X116480256Y-40642261D01*
X116480256Y-40642262D01*
X116344383Y-40789860D01*
X116311837Y-40825214D01*
X116175825Y-41033395D01*
X116075938Y-41261117D01*
X116014891Y-41502183D01*
X115994356Y-41750000D01*
X116014891Y-41997816D01*
X116014891Y-41997819D01*
X116014892Y-41997821D01*
X116075937Y-42238881D01*
X116120960Y-42341523D01*
X116175825Y-42466604D01*
X116175827Y-42466607D01*
X116311836Y-42674785D01*
X116480256Y-42857738D01*
X116480259Y-42857740D01*
X116676485Y-43010470D01*
X116676487Y-43010471D01*
X116676491Y-43010474D01*
X116895190Y-43128828D01*
X117130386Y-43209571D01*
X117375665Y-43250500D01*
X117624335Y-43250500D01*
X117869614Y-43209571D01*
X118104810Y-43128828D01*
X118323509Y-43010474D01*
X118519744Y-42857738D01*
X118688164Y-42674785D01*
X118824173Y-42466607D01*
X118924063Y-42238881D01*
X118985108Y-41997821D01*
X119005643Y-41750000D01*
X118985108Y-41502179D01*
X118924063Y-41261119D01*
X118824173Y-41033393D01*
X118688164Y-40825215D01*
X118519744Y-40642262D01*
X118400564Y-40549500D01*
X118323514Y-40489529D01*
X118323510Y-40489526D01*
X118323509Y-40489526D01*
X118127689Y-40383554D01*
X118080715Y-40338852D01*
X118062726Y-40276550D01*
X118078645Y-40213687D01*
X118124118Y-40167456D01*
X118186709Y-40150500D01*
X124313291Y-40150500D01*
X124375882Y-40167456D01*
X124421355Y-40213687D01*
X124437274Y-40276550D01*
X124419285Y-40338852D01*
X124372310Y-40383554D01*
X124249013Y-40450278D01*
X124176485Y-40489529D01*
X123980259Y-40642259D01*
X123980256Y-40642261D01*
X123980256Y-40642262D01*
X123844383Y-40789860D01*
X123811837Y-40825214D01*
X123675825Y-41033395D01*
X123575938Y-41261117D01*
X123514891Y-41502183D01*
X123494356Y-41750000D01*
X123514891Y-41997816D01*
X123514891Y-41997819D01*
X123514892Y-41997821D01*
X123575937Y-42238881D01*
X123620960Y-42341523D01*
X123675825Y-42466604D01*
X123675827Y-42466607D01*
X123811836Y-42674785D01*
X123980256Y-42857738D01*
X123980259Y-42857740D01*
X124176485Y-43010470D01*
X124176487Y-43010471D01*
X124176491Y-43010474D01*
X124395190Y-43128828D01*
X124630386Y-43209571D01*
X124875665Y-43250500D01*
X125124335Y-43250500D01*
X125369614Y-43209571D01*
X125604810Y-43128828D01*
X125823509Y-43010474D01*
X125962041Y-42902650D01*
X131444919Y-42902650D01*
X131465191Y-43108485D01*
X131525232Y-43306415D01*
X131539399Y-43332919D01*
X131539401Y-43332920D01*
X131969670Y-42902652D01*
X133030330Y-42902652D01*
X133460598Y-43332920D01*
X133460598Y-43332919D01*
X133474767Y-43306413D01*
X133534808Y-43108485D01*
X133555080Y-42902651D01*
X133555080Y-42902650D01*
X169944919Y-42902650D01*
X169965191Y-43108485D01*
X170025232Y-43306415D01*
X170039399Y-43332919D01*
X170039401Y-43332920D01*
X170469670Y-42902652D01*
X170469670Y-42902651D01*
X171530330Y-42902651D01*
X171960598Y-43332919D01*
X171974767Y-43306413D01*
X172034808Y-43108485D01*
X172055080Y-42902650D01*
X172034808Y-42696816D01*
X171974766Y-42498885D01*
X171960599Y-42472380D01*
X171530330Y-42902651D01*
X170469670Y-42902651D01*
X170039401Y-42472381D01*
X170039400Y-42472381D01*
X170025231Y-42498890D01*
X169965191Y-42696816D01*
X169944919Y-42902650D01*
X133555080Y-42902650D01*
X133534808Y-42696816D01*
X133474766Y-42498885D01*
X133460599Y-42472380D01*
X133030330Y-42902651D01*
X133030330Y-42902652D01*
X131969670Y-42902652D01*
X131969670Y-42902651D01*
X131539401Y-42472381D01*
X131539400Y-42472381D01*
X131525231Y-42498890D01*
X131465191Y-42696816D01*
X131444919Y-42902650D01*
X125962041Y-42902650D01*
X126019744Y-42857738D01*
X126188164Y-42674785D01*
X126324173Y-42466607D01*
X126424063Y-42238881D01*
X126485108Y-41997821D01*
X126489729Y-41942052D01*
X132069730Y-41942052D01*
X132500000Y-42372321D01*
X132500001Y-42372321D01*
X132930269Y-41942052D01*
X170569730Y-41942052D01*
X171000000Y-42372321D01*
X171000001Y-42372321D01*
X171430269Y-41942052D01*
X171430268Y-41942050D01*
X171403764Y-41927883D01*
X171205834Y-41867842D01*
X170999999Y-41847570D01*
X170794165Y-41867842D01*
X170596239Y-41927882D01*
X170569730Y-41942051D01*
X170569730Y-41942052D01*
X132930269Y-41942052D01*
X132930268Y-41942050D01*
X132903764Y-41927883D01*
X132705834Y-41867842D01*
X132499999Y-41847570D01*
X132294165Y-41867842D01*
X132096239Y-41927882D01*
X132069730Y-41942051D01*
X132069730Y-41942052D01*
X126489729Y-41942052D01*
X126505643Y-41750000D01*
X126485108Y-41502179D01*
X126424063Y-41261119D01*
X126324173Y-41033393D01*
X126188164Y-40825215D01*
X126019744Y-40642262D01*
X125900564Y-40549500D01*
X125823514Y-40489529D01*
X125823510Y-40489526D01*
X125823509Y-40489526D01*
X125627689Y-40383554D01*
X125580715Y-40338852D01*
X125562726Y-40276550D01*
X125578645Y-40213687D01*
X125624118Y-40167456D01*
X125686709Y-40150500D01*
X184475500Y-40150500D01*
X184537500Y-40167113D01*
X184582887Y-40212500D01*
X184599500Y-40274500D01*
X184599500Y-43156417D01*
X184585575Y-43213508D01*
X184546929Y-43257777D01*
X184492240Y-43279282D01*
X184433791Y-43273192D01*
X184384710Y-43240876D01*
X184356020Y-43189590D01*
X184274681Y-42896632D01*
X184136189Y-42549043D01*
X183960930Y-42218473D01*
X183960928Y-42218469D01*
X183750954Y-41908779D01*
X183750952Y-41908776D01*
X183508726Y-41623607D01*
X183237092Y-41366301D01*
X183237087Y-41366297D01*
X182939220Y-41139864D01*
X182939216Y-41139861D01*
X182939214Y-41139860D01*
X182618614Y-40946962D01*
X182279043Y-40789860D01*
X182279040Y-40789859D01*
X182279038Y-40789858D01*
X181924462Y-40670387D01*
X181924461Y-40670386D01*
X181924459Y-40670386D01*
X181702736Y-40621581D01*
X181559049Y-40589954D01*
X181373064Y-40569726D01*
X181187082Y-40549500D01*
X181187081Y-40549500D01*
X180812919Y-40549500D01*
X180812918Y-40549500D01*
X180440951Y-40589954D01*
X180075540Y-40670386D01*
X179720956Y-40789860D01*
X179381385Y-40946962D01*
X179060785Y-41139860D01*
X178762907Y-41366301D01*
X178491273Y-41623607D01*
X178249047Y-41908776D01*
X178039069Y-42218473D01*
X177863810Y-42549043D01*
X177725318Y-42896632D01*
X177625222Y-43257147D01*
X177564688Y-43626393D01*
X177544431Y-43999999D01*
X177564688Y-44373606D01*
X177625222Y-44742852D01*
X177725318Y-45103367D01*
X177863810Y-45450956D01*
X178039069Y-45781526D01*
X178039072Y-45781531D01*
X178148848Y-45943439D01*
X178249047Y-46091223D01*
X178491273Y-46376392D01*
X178762907Y-46633698D01*
X178762910Y-46633700D01*
X178762913Y-46633703D01*
X179060780Y-46860136D01*
X179381383Y-47053036D01*
X179720962Y-47210142D01*
X180075538Y-47329613D01*
X180440951Y-47410046D01*
X180776432Y-47446531D01*
X180812918Y-47450500D01*
X180812919Y-47450500D01*
X181187081Y-47450500D01*
X181187082Y-47450500D01*
X181220308Y-47446886D01*
X181559049Y-47410046D01*
X181924462Y-47329613D01*
X182279038Y-47210142D01*
X182618617Y-47053036D01*
X182939220Y-46860136D01*
X183237087Y-46633703D01*
X183508727Y-46376392D01*
X183750954Y-46091221D01*
X183960928Y-45781531D01*
X184057513Y-45599352D01*
X184136189Y-45450956D01*
X184274681Y-45103367D01*
X184356020Y-44810410D01*
X184384710Y-44759124D01*
X184433791Y-44726808D01*
X184492240Y-44720718D01*
X184546929Y-44742223D01*
X184585575Y-44786492D01*
X184599500Y-44843583D01*
X184599500Y-64876000D01*
X184582887Y-64938000D01*
X184537500Y-64983387D01*
X184475500Y-65000000D01*
X175031969Y-65000000D01*
X174984516Y-64990561D01*
X174944288Y-64963681D01*
X174912364Y-64931757D01*
X174835620Y-64876000D01*
X174734022Y-64802185D01*
X174537606Y-64702105D01*
X174327951Y-64633985D01*
X174327948Y-64633984D01*
X174110224Y-64599500D01*
X174110222Y-64599500D01*
X174031519Y-64599500D01*
X161057583Y-64599500D01*
X161000000Y-64599500D01*
X160889778Y-64599500D01*
X160889776Y-64599500D01*
X160672051Y-64633984D01*
X160462396Y-64702104D01*
X160462394Y-64702104D01*
X160462394Y-64702105D01*
X160265978Y-64802185D01*
X160265975Y-64802186D01*
X160265975Y-64802187D01*
X160087635Y-64931757D01*
X160055712Y-64963681D01*
X160015484Y-64990561D01*
X159968031Y-65000000D01*
X156281969Y-65000000D01*
X156234516Y-64990561D01*
X156194288Y-64963681D01*
X156162364Y-64931757D01*
X156085620Y-64876000D01*
X155984022Y-64802185D01*
X155787606Y-64702105D01*
X155577951Y-64633985D01*
X155577948Y-64633984D01*
X155360224Y-64599500D01*
X155360222Y-64599500D01*
X155281519Y-64599500D01*
X130057583Y-64599500D01*
X130000000Y-64599500D01*
X129889778Y-64599500D01*
X129889776Y-64599500D01*
X129672051Y-64633984D01*
X129462396Y-64702104D01*
X129462394Y-64702104D01*
X129462394Y-64702105D01*
X129265978Y-64802185D01*
X129265975Y-64802186D01*
X129265975Y-64802187D01*
X129087635Y-64931757D01*
X129055712Y-64963681D01*
X129015484Y-64990561D01*
X128968031Y-65000000D01*
X115250000Y-65000000D01*
X115250000Y-75750000D01*
X124126000Y-75750000D01*
X124188000Y-75766613D01*
X124233387Y-75812000D01*
X124250000Y-75874000D01*
X124250000Y-85725500D01*
X124233387Y-85787500D01*
X124188000Y-85832887D01*
X124126000Y-85849500D01*
X110838514Y-85849500D01*
X110780431Y-85835055D01*
X110735881Y-85795087D01*
X110715241Y-85738907D01*
X110723321Y-85679603D01*
X110758238Y-85630992D01*
X110811858Y-85604399D01*
X110830891Y-85600209D01*
X110924462Y-85579613D01*
X111279038Y-85460142D01*
X111618617Y-85303036D01*
X111939220Y-85110136D01*
X112237087Y-84883703D01*
X112508727Y-84626392D01*
X112750954Y-84341221D01*
X112960928Y-84031531D01*
X113072485Y-83821113D01*
X113136189Y-83700956D01*
X113274681Y-83353367D01*
X113374777Y-82992852D01*
X113374776Y-82992852D01*
X113374779Y-82992845D01*
X113435311Y-82623613D01*
X113455568Y-82250000D01*
X113435311Y-81876387D01*
X113374779Y-81507155D01*
X113367723Y-81481742D01*
X113274681Y-81146632D01*
X113136189Y-80799043D01*
X112960930Y-80468473D01*
X112960928Y-80468469D01*
X112750954Y-80158779D01*
X112750952Y-80158776D01*
X112508726Y-79873607D01*
X112237092Y-79616301D01*
X112123611Y-79530035D01*
X111939220Y-79389864D01*
X111939216Y-79389861D01*
X111939214Y-79389860D01*
X111618614Y-79196962D01*
X111279043Y-79039860D01*
X111279040Y-79039859D01*
X111279038Y-79039858D01*
X110924462Y-78920387D01*
X110924461Y-78920386D01*
X110924459Y-78920386D01*
X110662917Y-78862817D01*
X110559049Y-78839954D01*
X110373065Y-78819727D01*
X110187082Y-78799500D01*
X110187081Y-78799500D01*
X109812919Y-78799500D01*
X109812918Y-78799500D01*
X109440951Y-78839954D01*
X109075540Y-78920386D01*
X108720956Y-79039860D01*
X108381385Y-79196962D01*
X108060785Y-79389860D01*
X107762907Y-79616301D01*
X107491273Y-79873607D01*
X107249047Y-80158776D01*
X107039069Y-80468473D01*
X106863810Y-80799043D01*
X106725318Y-81146632D01*
X106643980Y-81439590D01*
X106615290Y-81490876D01*
X106566209Y-81523192D01*
X106507760Y-81529282D01*
X106453071Y-81507777D01*
X106414425Y-81463508D01*
X106400500Y-81406417D01*
X106400500Y-64000000D01*
X156969965Y-64000000D01*
X156988025Y-64137180D01*
X157040977Y-64265020D01*
X157125208Y-64374791D01*
X157234979Y-64459022D01*
X157234982Y-64459024D01*
X157362817Y-64511974D01*
X157500000Y-64530035D01*
X157637183Y-64511974D01*
X157765018Y-64459024D01*
X157874791Y-64374791D01*
X157959024Y-64265018D01*
X158011974Y-64137183D01*
X158030035Y-64000000D01*
X158011974Y-63862817D01*
X157959024Y-63734983D01*
X157940313Y-63710599D01*
X178252108Y-63710599D01*
X178278613Y-63724766D01*
X178476544Y-63784808D01*
X178682379Y-63805080D01*
X178888213Y-63784808D01*
X179086141Y-63724767D01*
X179112647Y-63710598D01*
X179112648Y-63710598D01*
X178682380Y-63280330D01*
X178682379Y-63280330D01*
X178252108Y-63710599D01*
X157940313Y-63710599D01*
X157874791Y-63625209D01*
X157874789Y-63625207D01*
X157874788Y-63625206D01*
X157765020Y-63540977D01*
X157765013Y-63540974D01*
X157637183Y-63488026D01*
X157637182Y-63488025D01*
X157637180Y-63488025D01*
X157500000Y-63469965D01*
X157362816Y-63488026D01*
X157234985Y-63540974D01*
X157125209Y-63625209D01*
X157040974Y-63734985D01*
X156988026Y-63862816D01*
X156969965Y-64000000D01*
X106400500Y-64000000D01*
X106400500Y-62750000D01*
X177627298Y-62750000D01*
X177647570Y-62955834D01*
X177707611Y-63153764D01*
X177721778Y-63180268D01*
X177721780Y-63180269D01*
X178152049Y-62750001D01*
X179212709Y-62750001D01*
X179642977Y-63180269D01*
X179642977Y-63180268D01*
X179648522Y-63169896D01*
X179693090Y-63122623D01*
X179755445Y-63104375D01*
X179818469Y-63120162D01*
X179864858Y-63165650D01*
X179881879Y-63228351D01*
X179881879Y-63597869D01*
X179888288Y-63657483D01*
X179938583Y-63792331D01*
X180024833Y-63907546D01*
X180140048Y-63993796D01*
X180274896Y-64044091D01*
X180334506Y-64050500D01*
X182030251Y-64050499D01*
X182089862Y-64044091D01*
X182224710Y-63993796D01*
X182339925Y-63907546D01*
X182426175Y-63792331D01*
X182476470Y-63657483D01*
X182482879Y-63597873D01*
X182482878Y-61902128D01*
X182476470Y-61842517D01*
X182426175Y-61707669D01*
X182339925Y-61592454D01*
X182224710Y-61506204D01*
X182089862Y-61455909D01*
X182030252Y-61449500D01*
X182030248Y-61449500D01*
X180334509Y-61449500D01*
X180274894Y-61455909D01*
X180140048Y-61506204D01*
X180024833Y-61592454D01*
X179938583Y-61707668D01*
X179888288Y-61842516D01*
X179881879Y-61902131D01*
X179881879Y-62271646D01*
X179864858Y-62334347D01*
X179818468Y-62379835D01*
X179755445Y-62395622D01*
X179693090Y-62377374D01*
X179648521Y-62330100D01*
X179642978Y-62319730D01*
X179212709Y-62750000D01*
X179212709Y-62750001D01*
X178152049Y-62750001D01*
X178152049Y-62750000D01*
X177721780Y-62319730D01*
X177721779Y-62319730D01*
X177707610Y-62346239D01*
X177647570Y-62544165D01*
X177627298Y-62750000D01*
X106400500Y-62750000D01*
X106400500Y-61789401D01*
X178252109Y-61789401D01*
X178682379Y-62219670D01*
X178682380Y-62219670D01*
X179112648Y-61789401D01*
X179112647Y-61789399D01*
X179086143Y-61775232D01*
X178888213Y-61715191D01*
X178682379Y-61694919D01*
X178476544Y-61715191D01*
X178278618Y-61775231D01*
X178252109Y-61789400D01*
X178252109Y-61789401D01*
X106400500Y-61789401D01*
X106400500Y-60307948D01*
X132069729Y-60307948D01*
X132096234Y-60322115D01*
X132294165Y-60382157D01*
X132500000Y-60402429D01*
X132705834Y-60382157D01*
X132903762Y-60322116D01*
X132930266Y-60307948D01*
X170569729Y-60307948D01*
X170596234Y-60322115D01*
X170794165Y-60382157D01*
X171000000Y-60402429D01*
X171205834Y-60382157D01*
X171403762Y-60322116D01*
X171430268Y-60307947D01*
X171430269Y-60307946D01*
X171000001Y-59877679D01*
X171000000Y-59877679D01*
X170569729Y-60307948D01*
X132930266Y-60307948D01*
X132930268Y-60307947D01*
X132930268Y-60307946D01*
X132500001Y-59877679D01*
X132500000Y-59877679D01*
X132069729Y-60307948D01*
X106400500Y-60307948D01*
X106400500Y-59347348D01*
X131444919Y-59347348D01*
X131465191Y-59553183D01*
X131525232Y-59751113D01*
X131539399Y-59777617D01*
X131539401Y-59777618D01*
X131969670Y-59347350D01*
X133030330Y-59347350D01*
X133460598Y-59777618D01*
X133460598Y-59777617D01*
X133474767Y-59751111D01*
X133534808Y-59553183D01*
X133540046Y-59499999D01*
X155469965Y-59499999D01*
X155488025Y-59637180D01*
X155488025Y-59637182D01*
X155488026Y-59637183D01*
X155540976Y-59765018D01*
X155540977Y-59765020D01*
X155625208Y-59874791D01*
X155734979Y-59959022D01*
X155734982Y-59959024D01*
X155862817Y-60011974D01*
X156000000Y-60030035D01*
X156137183Y-60011974D01*
X156265018Y-59959024D01*
X156374791Y-59874791D01*
X156459024Y-59765018D01*
X156511974Y-59637183D01*
X156530035Y-59500000D01*
X156511974Y-59362817D01*
X156505567Y-59347348D01*
X169944919Y-59347348D01*
X169965191Y-59553183D01*
X170025232Y-59751113D01*
X170039399Y-59777617D01*
X170039401Y-59777618D01*
X170469670Y-59347350D01*
X170469670Y-59347349D01*
X171530330Y-59347349D01*
X171960598Y-59777617D01*
X171974767Y-59751111D01*
X172034808Y-59553183D01*
X172055080Y-59347348D01*
X172034808Y-59141514D01*
X171974766Y-58943583D01*
X171960599Y-58917078D01*
X171530330Y-59347349D01*
X170469670Y-59347349D01*
X170039401Y-58917079D01*
X170039400Y-58917079D01*
X170025231Y-58943588D01*
X169965191Y-59141514D01*
X169944919Y-59347348D01*
X156505567Y-59347348D01*
X156459024Y-59234983D01*
X156374791Y-59125209D01*
X156374789Y-59125207D01*
X156374788Y-59125206D01*
X156265020Y-59040977D01*
X156265013Y-59040974D01*
X156137183Y-58988026D01*
X156137182Y-58988025D01*
X156137180Y-58988025D01*
X156024515Y-58973192D01*
X156000000Y-58969965D01*
X155999999Y-58969965D01*
X155862816Y-58988026D01*
X155734985Y-59040974D01*
X155625209Y-59125209D01*
X155540974Y-59234985D01*
X155488026Y-59362816D01*
X155469965Y-59499999D01*
X133540046Y-59499999D01*
X133555080Y-59347348D01*
X133534808Y-59141514D01*
X133474766Y-58943583D01*
X133460599Y-58917078D01*
X133030330Y-59347349D01*
X133030330Y-59347350D01*
X131969670Y-59347350D01*
X131969670Y-59347349D01*
X131539401Y-58917079D01*
X131539400Y-58917079D01*
X131525231Y-58943588D01*
X131465191Y-59141514D01*
X131444919Y-59347348D01*
X106400500Y-59347348D01*
X106400500Y-58386750D01*
X132069730Y-58386750D01*
X132500000Y-58817019D01*
X132500001Y-58817019D01*
X132930269Y-58386750D01*
X170569730Y-58386750D01*
X171000000Y-58817019D01*
X171000001Y-58817019D01*
X171430269Y-58386750D01*
X171430268Y-58386748D01*
X171403764Y-58372581D01*
X171205834Y-58312540D01*
X171000000Y-58292268D01*
X170794165Y-58312540D01*
X170596239Y-58372580D01*
X170569730Y-58386749D01*
X170569730Y-58386750D01*
X132930269Y-58386750D01*
X132930268Y-58386748D01*
X132903764Y-58372581D01*
X132705834Y-58312540D01*
X132500000Y-58292268D01*
X132294165Y-58312540D01*
X132096239Y-58372580D01*
X132069730Y-58386749D01*
X132069730Y-58386750D01*
X106400500Y-58386750D01*
X106400500Y-56620369D01*
X179442000Y-56620369D01*
X179448409Y-56679983D01*
X179498704Y-56814831D01*
X179584954Y-56930046D01*
X179700169Y-57016296D01*
X179835017Y-57066591D01*
X179894627Y-57073000D01*
X183090372Y-57072999D01*
X183149983Y-57066591D01*
X183284831Y-57016296D01*
X183400046Y-56930046D01*
X183486296Y-56814831D01*
X183536591Y-56679983D01*
X183543000Y-56620373D01*
X183542999Y-55224628D01*
X183536591Y-55165017D01*
X183486296Y-55030169D01*
X183400046Y-54914954D01*
X183284831Y-54828704D01*
X183149983Y-54778409D01*
X183090373Y-54772000D01*
X183090369Y-54772000D01*
X179894630Y-54772000D01*
X179835015Y-54778409D01*
X179700169Y-54828704D01*
X179584954Y-54914954D01*
X179498704Y-55030168D01*
X179448409Y-55165016D01*
X179442000Y-55224630D01*
X179442000Y-56620369D01*
X106400500Y-56620369D01*
X106400500Y-55144110D01*
X107207000Y-55144110D01*
X107241366Y-55327949D01*
X107246179Y-55353698D01*
X107323201Y-55552517D01*
X107435447Y-55733801D01*
X107579094Y-55891373D01*
X107749247Y-56019868D01*
X107939327Y-56114514D01*
X107940111Y-56114905D01*
X108063632Y-56150050D01*
X108145189Y-56173256D01*
X108304305Y-56188000D01*
X108304306Y-56188000D01*
X110210694Y-56188000D01*
X110210695Y-56188000D01*
X110369810Y-56173256D01*
X110369810Y-56173255D01*
X110574889Y-56114905D01*
X110669930Y-56067580D01*
X110765752Y-56019868D01*
X110765755Y-56019866D01*
X110935907Y-55891372D01*
X111079552Y-55733802D01*
X111191798Y-55552519D01*
X111268821Y-55353698D01*
X111302782Y-55172024D01*
X131449500Y-55172024D01*
X131464033Y-55245087D01*
X131464033Y-55245088D01*
X131464034Y-55245089D01*
X131519399Y-55327950D01*
X131602260Y-55383315D01*
X131638792Y-55390581D01*
X131675325Y-55397849D01*
X131675326Y-55397849D01*
X133324674Y-55397849D01*
X133324675Y-55397849D01*
X133349029Y-55393004D01*
X133397740Y-55383315D01*
X133480601Y-55327950D01*
X133535966Y-55245089D01*
X133550500Y-55172024D01*
X169949500Y-55172024D01*
X169964033Y-55245087D01*
X169964033Y-55245088D01*
X169964034Y-55245089D01*
X170019399Y-55327950D01*
X170102260Y-55383315D01*
X170138792Y-55390581D01*
X170175325Y-55397849D01*
X170175326Y-55397849D01*
X171824674Y-55397849D01*
X171824675Y-55397849D01*
X171849029Y-55393004D01*
X171897740Y-55383315D01*
X171980601Y-55327950D01*
X172035966Y-55245089D01*
X172050500Y-55172023D01*
X172050500Y-53522675D01*
X172035966Y-53449609D01*
X171980601Y-53366748D01*
X171897740Y-53311383D01*
X171897739Y-53311382D01*
X171897738Y-53311382D01*
X171824675Y-53296849D01*
X171824674Y-53296849D01*
X170175326Y-53296849D01*
X170175325Y-53296849D01*
X170102261Y-53311382D01*
X170019399Y-53366748D01*
X169964033Y-53449610D01*
X169949500Y-53522674D01*
X169949500Y-55172024D01*
X133550500Y-55172024D01*
X133550500Y-55172023D01*
X133550500Y-53522675D01*
X133535966Y-53449609D01*
X133480601Y-53366748D01*
X133397740Y-53311383D01*
X133397739Y-53311382D01*
X133397738Y-53311382D01*
X133324675Y-53296849D01*
X133324674Y-53296849D01*
X131675326Y-53296849D01*
X131675325Y-53296849D01*
X131602261Y-53311382D01*
X131519399Y-53366748D01*
X131464033Y-53449610D01*
X131449500Y-53522674D01*
X131449500Y-55172024D01*
X111302782Y-55172024D01*
X111308000Y-55144110D01*
X111308000Y-54930890D01*
X111268821Y-54721302D01*
X111191798Y-54522481D01*
X111079552Y-54341198D01*
X110935907Y-54183628D01*
X110935906Y-54183627D01*
X110935905Y-54183626D01*
X110765752Y-54055131D01*
X110574890Y-53960095D01*
X110369810Y-53901743D01*
X110210695Y-53887000D01*
X110210694Y-53887000D01*
X108304306Y-53887000D01*
X108304305Y-53887000D01*
X108145189Y-53901743D01*
X107940109Y-53960095D01*
X107749247Y-54055131D01*
X107579094Y-54183626D01*
X107435447Y-54341198D01*
X107323201Y-54522482D01*
X107246179Y-54721301D01*
X107246179Y-54721302D01*
X107207000Y-54930890D01*
X107207000Y-55144110D01*
X106400500Y-55144110D01*
X106400500Y-51925369D01*
X107207000Y-51925369D01*
X107213409Y-51984983D01*
X107263704Y-52119831D01*
X107349954Y-52235046D01*
X107465169Y-52321296D01*
X107600017Y-52371591D01*
X107659627Y-52378000D01*
X110855372Y-52377999D01*
X110914983Y-52371591D01*
X111049831Y-52321296D01*
X111165046Y-52235046D01*
X111251296Y-52119831D01*
X111301591Y-51984983D01*
X111308000Y-51925373D01*
X111308000Y-51749999D01*
X115994356Y-51749999D01*
X116014891Y-51997816D01*
X116014891Y-51997819D01*
X116014892Y-51997821D01*
X116075937Y-52238881D01*
X116112087Y-52321295D01*
X116175825Y-52466604D01*
X116175827Y-52466607D01*
X116311836Y-52674785D01*
X116480256Y-52857738D01*
X116480259Y-52857740D01*
X116676485Y-53010470D01*
X116676487Y-53010471D01*
X116676491Y-53010474D01*
X116895190Y-53128828D01*
X117130386Y-53209571D01*
X117375665Y-53250500D01*
X117624335Y-53250500D01*
X117869614Y-53209571D01*
X118104810Y-53128828D01*
X118323509Y-53010474D01*
X118519744Y-52857738D01*
X118688164Y-52674785D01*
X118824173Y-52466607D01*
X118924063Y-52238881D01*
X118985108Y-51997821D01*
X119005643Y-51750000D01*
X119005643Y-51749999D01*
X123494356Y-51749999D01*
X123514891Y-51997816D01*
X123514891Y-51997819D01*
X123514892Y-51997821D01*
X123575937Y-52238881D01*
X123612087Y-52321295D01*
X123675825Y-52466604D01*
X123675827Y-52466607D01*
X123811836Y-52674785D01*
X123980256Y-52857738D01*
X123980259Y-52857740D01*
X124176485Y-53010470D01*
X124176487Y-53010471D01*
X124176491Y-53010474D01*
X124395190Y-53128828D01*
X124630386Y-53209571D01*
X124875665Y-53250500D01*
X125124335Y-53250500D01*
X125369614Y-53209571D01*
X125604810Y-53128828D01*
X125823509Y-53010474D01*
X126019744Y-52857738D01*
X126188164Y-52674785D01*
X126310523Y-52487500D01*
X179504495Y-52487500D01*
X179558653Y-52627298D01*
X179670845Y-52808496D01*
X179814432Y-52966002D01*
X179984511Y-53094441D01*
X180175291Y-53189437D01*
X180380280Y-53247762D01*
X180539329Y-53262500D01*
X181117500Y-53262500D01*
X181117500Y-52487500D01*
X181867500Y-52487500D01*
X181867500Y-53262500D01*
X182445671Y-53262500D01*
X182604719Y-53247762D01*
X182809708Y-53189437D01*
X183000488Y-53094441D01*
X183170567Y-52966002D01*
X183314154Y-52808496D01*
X183426346Y-52627298D01*
X183480505Y-52487500D01*
X181867500Y-52487500D01*
X181117500Y-52487500D01*
X179504495Y-52487500D01*
X126310523Y-52487500D01*
X126324173Y-52466607D01*
X126424063Y-52238881D01*
X126485108Y-51997821D01*
X126505643Y-51750000D01*
X126485108Y-51502179D01*
X126424063Y-51261119D01*
X126334016Y-51055833D01*
X126324174Y-51033395D01*
X126321473Y-51029261D01*
X126188164Y-50825215D01*
X126019744Y-50642262D01*
X125875035Y-50529630D01*
X125823514Y-50489529D01*
X125823510Y-50489526D01*
X125823509Y-50489526D01*
X125604810Y-50371172D01*
X125604806Y-50371170D01*
X125604805Y-50371170D01*
X125369615Y-50290429D01*
X125124335Y-50249500D01*
X124875665Y-50249500D01*
X124630384Y-50290429D01*
X124395194Y-50371170D01*
X124176485Y-50489529D01*
X123980259Y-50642259D01*
X123811837Y-50825214D01*
X123675825Y-51033395D01*
X123633206Y-51130558D01*
X123575937Y-51261119D01*
X123514892Y-51502179D01*
X123514891Y-51502183D01*
X123494356Y-51749999D01*
X119005643Y-51749999D01*
X118985108Y-51502179D01*
X118924063Y-51261119D01*
X118834016Y-51055833D01*
X118824174Y-51033395D01*
X118821473Y-51029261D01*
X118688164Y-50825215D01*
X118519744Y-50642262D01*
X118375035Y-50529630D01*
X118323514Y-50489529D01*
X118323510Y-50489526D01*
X118323509Y-50489526D01*
X118104810Y-50371172D01*
X118104806Y-50371170D01*
X118104805Y-50371170D01*
X117869615Y-50290429D01*
X117624335Y-50249500D01*
X117375665Y-50249500D01*
X117130384Y-50290429D01*
X116895194Y-50371170D01*
X116676485Y-50489529D01*
X116480259Y-50642259D01*
X116311837Y-50825214D01*
X116175825Y-51033395D01*
X116133206Y-51130558D01*
X116075937Y-51261119D01*
X116014892Y-51502179D01*
X116014891Y-51502183D01*
X115994356Y-51749999D01*
X111308000Y-51749999D01*
X111307999Y-50529628D01*
X111301591Y-50470017D01*
X111251296Y-50335169D01*
X111165046Y-50219954D01*
X111049831Y-50133704D01*
X110914983Y-50083409D01*
X110855373Y-50077000D01*
X110855369Y-50077000D01*
X107659630Y-50077000D01*
X107600015Y-50083409D01*
X107465169Y-50133704D01*
X107349954Y-50219954D01*
X107263704Y-50335168D01*
X107213409Y-50470015D01*
X107213409Y-50470017D01*
X107208456Y-50516091D01*
X107207000Y-50529630D01*
X107207000Y-51925369D01*
X106400500Y-51925369D01*
X106400500Y-48727326D01*
X131449500Y-48727326D01*
X131464033Y-48800389D01*
X131464033Y-48800390D01*
X131464034Y-48800391D01*
X131519399Y-48883252D01*
X131602260Y-48938617D01*
X131638792Y-48945883D01*
X131675325Y-48953151D01*
X131675326Y-48953151D01*
X133324674Y-48953151D01*
X133324675Y-48953151D01*
X133349029Y-48948306D01*
X133397740Y-48938617D01*
X133480601Y-48883252D01*
X133535966Y-48800391D01*
X133550500Y-48727325D01*
X133550500Y-47750000D01*
X156250000Y-47750000D01*
X156250000Y-51750000D01*
X159500000Y-51750000D01*
X159500000Y-51737500D01*
X179504495Y-51737500D01*
X181117500Y-51737500D01*
X181117500Y-50962500D01*
X181867500Y-50962500D01*
X181867500Y-51737500D01*
X183480504Y-51737500D01*
X183426346Y-51597701D01*
X183314154Y-51416503D01*
X183170567Y-51258997D01*
X183000488Y-51130558D01*
X182809708Y-51035562D01*
X182604719Y-50977237D01*
X182445671Y-50962500D01*
X181867500Y-50962500D01*
X181117500Y-50962500D01*
X180539329Y-50962500D01*
X180380280Y-50977237D01*
X180175291Y-51035562D01*
X179984511Y-51130558D01*
X179814432Y-51258997D01*
X179670845Y-51416503D01*
X179558653Y-51597701D01*
X179504495Y-51737500D01*
X159500000Y-51737500D01*
X159500000Y-48727326D01*
X169949500Y-48727326D01*
X169964033Y-48800389D01*
X169964033Y-48800390D01*
X169964034Y-48800391D01*
X170019399Y-48883252D01*
X170102260Y-48938617D01*
X170138792Y-48945883D01*
X170175325Y-48953151D01*
X170175326Y-48953151D01*
X171824674Y-48953151D01*
X171824675Y-48953151D01*
X171849029Y-48948306D01*
X171897740Y-48938617D01*
X171980601Y-48883252D01*
X172035966Y-48800391D01*
X172050500Y-48727325D01*
X172050500Y-47077977D01*
X172035966Y-47004911D01*
X171980601Y-46922050D01*
X171897740Y-46866685D01*
X171897739Y-46866684D01*
X171897738Y-46866684D01*
X171824675Y-46852151D01*
X171824674Y-46852151D01*
X170175326Y-46852151D01*
X170175325Y-46852151D01*
X170102261Y-46866684D01*
X170019399Y-46922050D01*
X169964033Y-47004912D01*
X169949500Y-47077976D01*
X169949500Y-48727326D01*
X159500000Y-48727326D01*
X159500000Y-47750000D01*
X156250000Y-47750000D01*
X133550500Y-47750000D01*
X133550500Y-47077977D01*
X133535966Y-47004911D01*
X133480601Y-46922050D01*
X133397740Y-46866685D01*
X133397739Y-46866684D01*
X133397738Y-46866684D01*
X133324675Y-46852151D01*
X133324674Y-46852151D01*
X131675326Y-46852151D01*
X131675325Y-46852151D01*
X131602261Y-46866684D01*
X131519399Y-46922050D01*
X131464033Y-47004912D01*
X131449500Y-47077976D01*
X131449500Y-48727326D01*
X106400500Y-48727326D01*
X106400500Y-44843583D01*
X106414425Y-44786492D01*
X106453071Y-44742223D01*
X106507760Y-44720718D01*
X106566209Y-44726808D01*
X106615290Y-44759124D01*
X106643980Y-44810410D01*
X106725318Y-45103367D01*
X106863810Y-45450956D01*
X107039069Y-45781526D01*
X107039072Y-45781531D01*
X107148848Y-45943439D01*
X107249047Y-46091223D01*
X107491273Y-46376392D01*
X107762907Y-46633698D01*
X107762910Y-46633700D01*
X107762913Y-46633703D01*
X108060780Y-46860136D01*
X108381383Y-47053036D01*
X108720962Y-47210142D01*
X109075538Y-47329613D01*
X109440951Y-47410046D01*
X109776432Y-47446531D01*
X109812918Y-47450500D01*
X109812919Y-47450500D01*
X110187081Y-47450500D01*
X110187082Y-47450500D01*
X110220308Y-47446886D01*
X110559049Y-47410046D01*
X110924462Y-47329613D01*
X111279038Y-47210142D01*
X111463069Y-47125000D01*
X116047613Y-47125000D01*
X116076411Y-47238715D01*
X116176266Y-47466365D01*
X116312233Y-47674477D01*
X116480596Y-47857368D01*
X116676766Y-48010053D01*
X116895394Y-48128369D01*
X117124999Y-48207192D01*
X117125000Y-48207192D01*
X117125000Y-47125000D01*
X117875000Y-47125000D01*
X117875000Y-48207192D01*
X118104605Y-48128369D01*
X118323233Y-48010053D01*
X118519403Y-47857368D01*
X118687766Y-47674477D01*
X118823733Y-47466365D01*
X118923588Y-47238715D01*
X118952386Y-47125000D01*
X117875000Y-47125000D01*
X117125000Y-47125000D01*
X116047613Y-47125000D01*
X111463069Y-47125000D01*
X111618617Y-47053036D01*
X111939220Y-46860136D01*
X112084102Y-46749999D01*
X123494356Y-46749999D01*
X123514891Y-46997816D01*
X123514891Y-46997819D01*
X123514892Y-46997821D01*
X123575937Y-47238881D01*
X123615736Y-47329613D01*
X123675825Y-47466604D01*
X123675827Y-47466607D01*
X123811836Y-47674785D01*
X123980256Y-47857738D01*
X123980259Y-47857740D01*
X124176485Y-48010470D01*
X124176487Y-48010471D01*
X124176491Y-48010474D01*
X124395190Y-48128828D01*
X124630386Y-48209571D01*
X124875665Y-48250500D01*
X125124335Y-48250500D01*
X125369614Y-48209571D01*
X125604810Y-48128828D01*
X125823509Y-48010474D01*
X126019744Y-47857738D01*
X126188164Y-47674785D01*
X126324173Y-47466607D01*
X126424063Y-47238881D01*
X126485108Y-46997821D01*
X126505643Y-46750000D01*
X126485108Y-46502179D01*
X126424063Y-46261119D01*
X126324173Y-46033393D01*
X126188164Y-45825215D01*
X126019744Y-45642262D01*
X125997612Y-45625036D01*
X125823514Y-45489529D01*
X125823510Y-45489526D01*
X125823509Y-45489526D01*
X125604810Y-45371172D01*
X125604806Y-45371170D01*
X125604805Y-45371170D01*
X125369615Y-45290429D01*
X125124335Y-45249500D01*
X124875665Y-45249500D01*
X124630384Y-45290429D01*
X124395194Y-45371170D01*
X124176485Y-45489529D01*
X123980259Y-45642259D01*
X123980256Y-45642261D01*
X123980256Y-45642262D01*
X123811836Y-45825215D01*
X123766499Y-45894607D01*
X123675825Y-46033395D01*
X123650460Y-46091223D01*
X123575937Y-46261119D01*
X123546746Y-46376392D01*
X123514891Y-46502183D01*
X123494356Y-46749999D01*
X112084102Y-46749999D01*
X112237087Y-46633703D01*
X112508727Y-46376392D01*
X112509910Y-46374999D01*
X116047613Y-46374999D01*
X116047614Y-46375000D01*
X117125000Y-46375000D01*
X117125000Y-45292808D01*
X117124999Y-45292807D01*
X117875000Y-45292807D01*
X117875000Y-46375000D01*
X118952386Y-46375000D01*
X118952386Y-46374999D01*
X118923588Y-46261284D01*
X118823733Y-46033634D01*
X118687766Y-45825522D01*
X118519403Y-45642631D01*
X118323233Y-45489946D01*
X118104605Y-45371630D01*
X117875000Y-45292807D01*
X117124999Y-45292807D01*
X116895394Y-45371630D01*
X116676766Y-45489946D01*
X116480596Y-45642631D01*
X116312233Y-45825522D01*
X116176266Y-46033634D01*
X116076411Y-46261284D01*
X116047613Y-46374999D01*
X112509910Y-46374999D01*
X112750954Y-46091221D01*
X112960928Y-45781531D01*
X113057513Y-45599352D01*
X113136189Y-45450956D01*
X113274681Y-45103367D01*
X113374777Y-44742852D01*
X113374776Y-44742852D01*
X113374779Y-44742845D01*
X113435311Y-44373613D01*
X113455568Y-44000000D01*
X113448154Y-43863250D01*
X132069729Y-43863250D01*
X132096234Y-43877417D01*
X132294165Y-43937459D01*
X132499999Y-43957731D01*
X132705834Y-43937459D01*
X132903762Y-43877418D01*
X132930266Y-43863250D01*
X170569729Y-43863250D01*
X170596234Y-43877417D01*
X170794165Y-43937459D01*
X170999999Y-43957731D01*
X171205834Y-43937459D01*
X171403762Y-43877418D01*
X171430268Y-43863249D01*
X171430269Y-43863249D01*
X171000001Y-43432981D01*
X171000000Y-43432981D01*
X170569729Y-43863250D01*
X132930266Y-43863250D01*
X132930268Y-43863249D01*
X132930269Y-43863249D01*
X132500001Y-43432981D01*
X132500000Y-43432981D01*
X132069729Y-43863250D01*
X113448154Y-43863250D01*
X113435311Y-43626387D01*
X113374779Y-43257155D01*
X113370259Y-43240876D01*
X113274681Y-42896632D01*
X113136189Y-42549043D01*
X112960930Y-42218473D01*
X112960928Y-42218469D01*
X112750954Y-41908779D01*
X112750952Y-41908776D01*
X112508726Y-41623607D01*
X112237092Y-41366301D01*
X112237087Y-41366297D01*
X111939220Y-41139864D01*
X111939216Y-41139861D01*
X111939214Y-41139860D01*
X111618614Y-40946962D01*
X111279043Y-40789860D01*
X111279040Y-40789859D01*
X111279038Y-40789858D01*
X110924462Y-40670387D01*
X110924461Y-40670386D01*
X110924459Y-40670386D01*
X110702736Y-40621581D01*
X110559049Y-40589954D01*
X110373064Y-40569726D01*
X110187082Y-40549500D01*
X110187081Y-40549500D01*
X109812919Y-40549500D01*
X109812918Y-40549500D01*
X109440951Y-40589954D01*
X109075540Y-40670386D01*
X108720956Y-40789860D01*
X108381385Y-40946962D01*
X108060785Y-41139860D01*
X107762907Y-41366301D01*
X107491273Y-41623607D01*
X107249047Y-41908776D01*
X107039069Y-42218473D01*
X106863810Y-42549043D01*
X106725318Y-42896632D01*
X106643980Y-43189590D01*
X106615290Y-43240876D01*
X106566209Y-43273192D01*
X106507760Y-43279282D01*
X106453071Y-43257777D01*
X106414425Y-43213508D01*
X106400500Y-43156417D01*
X106400500Y-40274500D01*
X106417113Y-40212500D01*
X106462500Y-40167113D01*
X106524500Y-40150500D01*
X116813291Y-40150500D01*
X116875882Y-40167456D01*
G37*
%TD.AperFunction*%
%TD*%
%TA.AperFunction,Conductor*%
%TO.N,GND*%
G36*
X159500000Y-51750000D02*
G01*
X156250000Y-51750000D01*
X156250000Y-47750000D01*
X159500000Y-47750000D01*
X159500000Y-51750000D01*
G37*
%TD.AperFunction*%
%TD*%
%TA.AperFunction,Conductor*%
%TO.N,Net-(J3-Pin_4)*%
G36*
X139256061Y-77500597D02*
G01*
X139432941Y-77518018D01*
X139456769Y-77522757D01*
X139621001Y-77572576D01*
X139643453Y-77581877D01*
X139794798Y-77662772D01*
X139815010Y-77676277D01*
X139947666Y-77785145D01*
X139964854Y-77802333D01*
X140073722Y-77934989D01*
X140087227Y-77955201D01*
X140168121Y-78106543D01*
X140177424Y-78129001D01*
X140227240Y-78293224D01*
X140231982Y-78317065D01*
X140249403Y-78493939D01*
X140250000Y-78506093D01*
X140250000Y-85013033D01*
X140249417Y-85025039D01*
X140232419Y-85199768D01*
X140227792Y-85223329D01*
X140179168Y-85385727D01*
X140170085Y-85407955D01*
X140091075Y-85557933D01*
X140077880Y-85577994D01*
X139971444Y-85709934D01*
X139954630Y-85727074D01*
X139843275Y-85820496D01*
X139805983Y-85842024D01*
X139763577Y-85849500D01*
X127528460Y-85849500D01*
X127475918Y-85837818D01*
X127433275Y-85804972D01*
X127430483Y-85801628D01*
X127416663Y-85781265D01*
X127333864Y-85628573D01*
X127324339Y-85605887D01*
X127309603Y-85557933D01*
X127273316Y-85439845D01*
X127268459Y-85415727D01*
X127250612Y-85236722D01*
X127250000Y-85224420D01*
X127250000Y-84172869D01*
X128649500Y-84172869D01*
X128654116Y-84215804D01*
X128655909Y-84232483D01*
X128706204Y-84367331D01*
X128792454Y-84482546D01*
X128907669Y-84568796D01*
X129042517Y-84619091D01*
X129102127Y-84625500D01*
X129897872Y-84625499D01*
X129957483Y-84619091D01*
X130092331Y-84568796D01*
X130207546Y-84482546D01*
X130293796Y-84367331D01*
X130344091Y-84232483D01*
X130350500Y-84172873D01*
X130350500Y-83821115D01*
X130649500Y-83821115D01*
X130664485Y-83958908D01*
X130664486Y-83958910D01*
X130723556Y-84134221D01*
X130818930Y-84292736D01*
X130946151Y-84427041D01*
X131099270Y-84530858D01*
X131099271Y-84530858D01*
X131099272Y-84530859D01*
X131271121Y-84599330D01*
X131271123Y-84599330D01*
X131271125Y-84599331D01*
X131453683Y-84629260D01*
X131638407Y-84619245D01*
X131816659Y-84569754D01*
X131980104Y-84483100D01*
X132121100Y-84363337D01*
X132233054Y-84216064D01*
X132233053Y-84216064D01*
X132233055Y-84216063D01*
X132310731Y-84048169D01*
X132310730Y-84048169D01*
X132310732Y-84048167D01*
X132350500Y-83867497D01*
X132350500Y-83821115D01*
X132649500Y-83821115D01*
X132664485Y-83958908D01*
X132664486Y-83958910D01*
X132723556Y-84134221D01*
X132818930Y-84292736D01*
X132946151Y-84427041D01*
X133099270Y-84530858D01*
X133099271Y-84530858D01*
X133099272Y-84530859D01*
X133271121Y-84599330D01*
X133271123Y-84599330D01*
X133271125Y-84599331D01*
X133453683Y-84629260D01*
X133638407Y-84619245D01*
X133816659Y-84569754D01*
X133980104Y-84483100D01*
X134121100Y-84363337D01*
X134233054Y-84216064D01*
X134233053Y-84216064D01*
X134233055Y-84216063D01*
X134310731Y-84048169D01*
X134310730Y-84048169D01*
X134310732Y-84048167D01*
X134348848Y-83875000D01*
X134655864Y-83875000D01*
X134664977Y-83958801D01*
X134724011Y-84134009D01*
X134819330Y-84292431D01*
X134946478Y-84426658D01*
X135099501Y-84530411D01*
X135124999Y-84540570D01*
X135125000Y-84540571D01*
X135125000Y-83875000D01*
X135875000Y-83875000D01*
X135875000Y-84538257D01*
X135979820Y-84482685D01*
X136120737Y-84362987D01*
X136232624Y-84215804D01*
X136310254Y-84048009D01*
X136348337Y-83875000D01*
X135875000Y-83875000D01*
X135125000Y-83875000D01*
X134655864Y-83875000D01*
X134348848Y-83875000D01*
X134350500Y-83867497D01*
X134350500Y-83178887D01*
X134344640Y-83125000D01*
X134651663Y-83125000D01*
X135125000Y-83125000D01*
X135125000Y-82461743D01*
X135124999Y-82461742D01*
X135020179Y-82517314D01*
X134879262Y-82637012D01*
X134767375Y-82784195D01*
X134689745Y-82951990D01*
X134651663Y-83125000D01*
X134344640Y-83125000D01*
X134335514Y-83041090D01*
X134276444Y-82865779D01*
X134181070Y-82707264D01*
X134053849Y-82572959D01*
X133900730Y-82469142D01*
X133900729Y-82469141D01*
X133900727Y-82469140D01*
X133876354Y-82459429D01*
X135875000Y-82459429D01*
X135875000Y-83125000D01*
X136344136Y-83125000D01*
X136335022Y-83041198D01*
X136275988Y-82865990D01*
X136180669Y-82707568D01*
X136053521Y-82573341D01*
X135900498Y-82469588D01*
X135875000Y-82459429D01*
X133876354Y-82459429D01*
X133728878Y-82400669D01*
X133637595Y-82385704D01*
X133546317Y-82370740D01*
X133546314Y-82370740D01*
X133361592Y-82380754D01*
X133183341Y-82430245D01*
X133019896Y-82516899D01*
X132878899Y-82636663D01*
X132766944Y-82783936D01*
X132689268Y-82951830D01*
X132649500Y-83132503D01*
X132649500Y-83821115D01*
X132350500Y-83821115D01*
X132350500Y-83178887D01*
X132335514Y-83041090D01*
X132276444Y-82865779D01*
X132181070Y-82707264D01*
X132053849Y-82572959D01*
X131900730Y-82469142D01*
X131900729Y-82469141D01*
X131900727Y-82469140D01*
X131728878Y-82400669D01*
X131637595Y-82385704D01*
X131546317Y-82370740D01*
X131546314Y-82370740D01*
X131361592Y-82380754D01*
X131183341Y-82430245D01*
X131019896Y-82516899D01*
X130878899Y-82636663D01*
X130766944Y-82783936D01*
X130689268Y-82951830D01*
X130649500Y-83132503D01*
X130649500Y-83821115D01*
X130350500Y-83821115D01*
X130350499Y-82827128D01*
X130344091Y-82767517D01*
X130293796Y-82632669D01*
X130207546Y-82517454D01*
X130092331Y-82431204D01*
X129957483Y-82380909D01*
X129897873Y-82374500D01*
X129897869Y-82374500D01*
X129102130Y-82374500D01*
X129042515Y-82380909D01*
X128907669Y-82431204D01*
X128792454Y-82517454D01*
X128706204Y-82632668D01*
X128655909Y-82767516D01*
X128649500Y-82827130D01*
X128649500Y-84172869D01*
X127250000Y-84172869D01*
X127250000Y-78506093D01*
X127250597Y-78493939D01*
X127251290Y-78486895D01*
X127268018Y-78317056D01*
X127272757Y-78293232D01*
X127322577Y-78128994D01*
X127331875Y-78106549D01*
X127412775Y-77955195D01*
X127426272Y-77934995D01*
X127535149Y-77802328D01*
X127552328Y-77785149D01*
X127684995Y-77676272D01*
X127705195Y-77662775D01*
X127856549Y-77581875D01*
X127878994Y-77572577D01*
X128043232Y-77522757D01*
X128067056Y-77518018D01*
X128243938Y-77500597D01*
X128256093Y-77500000D01*
X139243907Y-77500000D01*
X139256061Y-77500597D01*
G37*
%TD.AperFunction*%
%TD*%
%TA.AperFunction,Conductor*%
%TO.N,GND*%
G36*
X129016270Y-67007536D02*
G01*
X129048388Y-67028996D01*
X129087633Y-67068240D01*
X129087635Y-67068242D01*
X129265978Y-67197815D01*
X129394470Y-67263286D01*
X129462391Y-67297894D01*
X129462393Y-67297894D01*
X129462394Y-67297895D01*
X129672049Y-67366015D01*
X129889778Y-67400500D01*
X129968481Y-67400500D01*
X130000000Y-67400500D01*
X130057583Y-67400500D01*
X155192417Y-67400500D01*
X155281519Y-67400500D01*
X155360222Y-67400500D01*
X155577951Y-67366015D01*
X155787606Y-67297895D01*
X155984022Y-67197815D01*
X156162365Y-67068242D01*
X156181988Y-67048618D01*
X156201612Y-67028996D01*
X156233730Y-67007536D01*
X156271615Y-67000000D01*
X159978385Y-67000000D01*
X160016270Y-67007536D01*
X160048388Y-67028996D01*
X160087633Y-67068240D01*
X160087635Y-67068242D01*
X160265978Y-67197815D01*
X160394470Y-67263286D01*
X160462391Y-67297894D01*
X160462393Y-67297894D01*
X160462394Y-67297895D01*
X160672049Y-67366015D01*
X160889778Y-67400500D01*
X160968481Y-67400500D01*
X161000000Y-67400500D01*
X161057583Y-67400500D01*
X173942417Y-67400500D01*
X174031519Y-67400500D01*
X174110222Y-67400500D01*
X174327951Y-67366015D01*
X174537606Y-67297895D01*
X174734022Y-67197815D01*
X174912365Y-67068242D01*
X174931988Y-67048618D01*
X174951612Y-67028996D01*
X174983730Y-67007536D01*
X175021615Y-67000000D01*
X183995139Y-67000000D01*
X184004842Y-67000476D01*
X184185388Y-67018259D01*
X184204418Y-67022044D01*
X184373360Y-67073292D01*
X184391276Y-67080713D01*
X184546974Y-67163935D01*
X184563136Y-67174739D01*
X184563340Y-67174907D01*
X184590004Y-67209097D01*
X184599500Y-67251405D01*
X184599500Y-82173659D01*
X184581218Y-82230979D01*
X184555912Y-82250000D01*
X184581218Y-82269021D01*
X184599500Y-82326341D01*
X184599500Y-85750500D01*
X184586237Y-85800000D01*
X184550000Y-85836237D01*
X184500500Y-85849500D01*
X148861638Y-85849500D01*
X148812956Y-85836704D01*
X148776859Y-85801623D01*
X148762678Y-85753326D01*
X148774080Y-85704299D01*
X148808116Y-85667215D01*
X148809662Y-85666221D01*
X148814589Y-85663055D01*
X148825468Y-85650500D01*
X148904129Y-85559720D01*
X148960932Y-85435339D01*
X148980390Y-85299999D01*
X148960932Y-85164660D01*
X148904129Y-85040279D01*
X148824681Y-84948592D01*
X148806742Y-84918358D01*
X148800500Y-84883761D01*
X148800500Y-81765165D01*
X148803097Y-81749244D01*
X148800606Y-81695358D01*
X148800500Y-81690786D01*
X148800500Y-81672157D01*
X148800480Y-81672050D01*
X148798898Y-81658430D01*
X148797585Y-81630008D01*
X148793613Y-81621013D01*
X148786866Y-81599224D01*
X148785061Y-81589567D01*
X148770091Y-81565389D01*
X148763698Y-81553261D01*
X148752206Y-81527234D01*
X148745255Y-81520283D01*
X148731086Y-81502393D01*
X148725919Y-81494048D01*
X148703226Y-81476911D01*
X148692883Y-81467911D01*
X145808464Y-78583493D01*
X145784534Y-78544751D01*
X145780761Y-78502582D01*
X145780476Y-78500600D01*
X145780529Y-78499998D01*
X145780476Y-78499396D01*
X145780761Y-78497413D01*
X145784534Y-78455246D01*
X145808462Y-78416507D01*
X147395474Y-76829496D01*
X147427593Y-76808036D01*
X147465479Y-76800500D01*
X148275500Y-76800500D01*
X148325000Y-76813763D01*
X148361237Y-76850000D01*
X148374500Y-76899500D01*
X148374500Y-77369747D01*
X148386133Y-77428231D01*
X148430447Y-77494552D01*
X148474761Y-77524162D01*
X148496769Y-77538867D01*
X148555252Y-77550500D01*
X150294747Y-77550500D01*
X150294748Y-77550500D01*
X150353231Y-77538867D01*
X150419552Y-77494552D01*
X150463867Y-77428231D01*
X150475500Y-77369748D01*
X150475500Y-75915480D01*
X150483036Y-75877594D01*
X150504496Y-75845476D01*
X150670476Y-75679496D01*
X150702594Y-75658036D01*
X150740480Y-75650500D01*
X151093876Y-75650500D01*
X151146841Y-75665859D01*
X151183371Y-75707172D01*
X151192131Y-75761619D01*
X151170404Y-75812305D01*
X151087315Y-75913549D01*
X150989767Y-76096047D01*
X150929699Y-76294066D01*
X150909416Y-76500000D01*
X150929699Y-76705933D01*
X150988417Y-76899500D01*
X150989768Y-76903954D01*
X151087315Y-77086450D01*
X151218590Y-77246410D01*
X151378550Y-77377685D01*
X151561046Y-77475232D01*
X151759066Y-77535300D01*
X151965000Y-77555583D01*
X152170934Y-77535300D01*
X152368954Y-77475232D01*
X152551450Y-77377685D01*
X152711410Y-77246410D01*
X152842685Y-77086450D01*
X152940232Y-76903954D01*
X153000300Y-76705934D01*
X153010734Y-76600000D01*
X153459767Y-76600000D01*
X153470191Y-76705835D01*
X153530231Y-76903763D01*
X153627730Y-77086170D01*
X153758945Y-77246054D01*
X153918829Y-77377269D01*
X154101236Y-77474768D01*
X154299164Y-77534808D01*
X154404999Y-77545232D01*
X154405000Y-77545232D01*
X154605000Y-77545232D01*
X154710835Y-77534808D01*
X154908763Y-77474768D01*
X155091170Y-77377269D01*
X155251054Y-77246054D01*
X155382269Y-77086170D01*
X155479768Y-76903763D01*
X155539808Y-76705835D01*
X155550232Y-76600000D01*
X154605001Y-76600000D01*
X154605000Y-76600001D01*
X154605000Y-77545232D01*
X154405000Y-77545232D01*
X154405000Y-76600001D01*
X154404999Y-76600000D01*
X153459767Y-76600000D01*
X153010734Y-76600000D01*
X153020583Y-76500000D01*
X153000300Y-76294066D01*
X152940232Y-76096046D01*
X152842685Y-75913550D01*
X152759596Y-75812305D01*
X152737869Y-75761619D01*
X152746629Y-75707172D01*
X152783159Y-75665859D01*
X152836124Y-75650500D01*
X153634522Y-75650500D01*
X153687487Y-75665860D01*
X153724017Y-75707172D01*
X153732777Y-75761619D01*
X153711050Y-75812305D01*
X153627730Y-75913829D01*
X153530231Y-76096236D01*
X153470191Y-76294164D01*
X153459767Y-76399999D01*
X153459768Y-76400000D01*
X155550232Y-76400000D01*
X155550232Y-76399999D01*
X155539808Y-76294164D01*
X155479768Y-76096236D01*
X155382269Y-75913829D01*
X155298950Y-75812305D01*
X155277223Y-75761619D01*
X155285983Y-75707172D01*
X155322513Y-75665860D01*
X155375478Y-75650500D01*
X156943827Y-75650500D01*
X156944273Y-75650500D01*
X156971364Y-75654279D01*
X156971793Y-75654401D01*
X157009337Y-75650922D01*
X157018472Y-75650500D01*
X157027844Y-75650500D01*
X160434521Y-75650500D01*
X160472407Y-75658036D01*
X160504525Y-75679496D01*
X162605525Y-77780496D01*
X162632619Y-77831186D01*
X162626985Y-77888386D01*
X162590522Y-77932815D01*
X162535521Y-77949500D01*
X161815165Y-77949500D01*
X161799244Y-77946902D01*
X161745358Y-77949394D01*
X161740786Y-77949500D01*
X161722154Y-77949500D01*
X161722031Y-77949523D01*
X161708420Y-77951101D01*
X161680008Y-77952414D01*
X161671015Y-77956385D01*
X161649228Y-77963132D01*
X161639566Y-77964938D01*
X161615381Y-77979912D01*
X161603261Y-77986301D01*
X161577234Y-77997794D01*
X161570285Y-78004743D01*
X161552408Y-78018904D01*
X161544047Y-78024081D01*
X161526904Y-78046781D01*
X161517907Y-78057120D01*
X161079526Y-78495503D01*
X161047408Y-78516964D01*
X161009522Y-78524500D01*
X160931633Y-78524500D01*
X160800437Y-78563022D01*
X160685410Y-78636944D01*
X160595870Y-78740279D01*
X160539067Y-78864660D01*
X160519609Y-78999999D01*
X160539067Y-79135339D01*
X160595870Y-79259720D01*
X160685410Y-79363055D01*
X160791619Y-79431310D01*
X160800439Y-79436978D01*
X160931633Y-79475500D01*
X161068367Y-79475500D01*
X161199561Y-79436978D01*
X161314589Y-79363055D01*
X161314588Y-79363055D01*
X161404129Y-79259720D01*
X161404130Y-79259718D01*
X161460931Y-79135342D01*
X161480390Y-79000000D01*
X161480389Y-78999999D01*
X161480759Y-78997433D01*
X161484534Y-78955245D01*
X161508463Y-78916506D01*
X161845474Y-78579496D01*
X161877592Y-78558036D01*
X161915478Y-78550500D01*
X163334521Y-78550500D01*
X163372407Y-78558036D01*
X163404525Y-78579496D01*
X166991535Y-82166506D01*
X167015464Y-82205244D01*
X167019241Y-82247439D01*
X167039067Y-82385339D01*
X167095870Y-82509720D01*
X167185410Y-82613055D01*
X167300437Y-82686977D01*
X167300439Y-82686978D01*
X167431633Y-82725500D01*
X167568367Y-82725500D01*
X167699561Y-82686978D01*
X167814589Y-82613055D01*
X167830074Y-82595184D01*
X167904129Y-82509720D01*
X167936137Y-82439632D01*
X167960931Y-82385342D01*
X167960931Y-82385340D01*
X167960932Y-82385339D01*
X167980390Y-82250000D01*
X177594506Y-82250000D01*
X177614469Y-82618199D01*
X177632060Y-82725500D01*
X177674126Y-82982087D01*
X177772771Y-83337374D01*
X177772773Y-83337379D01*
X177909257Y-83679930D01*
X178081978Y-84005716D01*
X178266091Y-84277262D01*
X178288911Y-84310918D01*
X178527624Y-84591953D01*
X178795333Y-84845541D01*
X179051507Y-85040279D01*
X179088881Y-85068690D01*
X179404838Y-85258795D01*
X179739497Y-85413625D01*
X180088934Y-85531364D01*
X180088937Y-85531364D01*
X180088941Y-85531366D01*
X180325752Y-85583491D01*
X180449052Y-85610632D01*
X180815630Y-85650500D01*
X181184367Y-85650500D01*
X181184370Y-85650500D01*
X181550948Y-85610632D01*
X181787766Y-85558504D01*
X181911058Y-85531366D01*
X181911060Y-85531365D01*
X181911066Y-85531364D01*
X182260503Y-85413625D01*
X182595162Y-85258795D01*
X182911119Y-85068690D01*
X183204670Y-84845538D01*
X183472373Y-84591956D01*
X183711090Y-84310917D01*
X183918022Y-84005716D01*
X184090743Y-83679930D01*
X184227227Y-83337379D01*
X184325875Y-82982081D01*
X184385531Y-82618199D01*
X184401645Y-82320979D01*
X184423003Y-82264735D01*
X184444991Y-82250000D01*
X184423003Y-82235265D01*
X184401645Y-82179020D01*
X184385531Y-81881801D01*
X184325875Y-81517919D01*
X184227227Y-81162621D01*
X184090743Y-80820070D01*
X183918022Y-80494284D01*
X183711090Y-80189083D01*
X183472373Y-79908044D01*
X183204670Y-79654462D01*
X183204671Y-79654462D01*
X183204666Y-79654458D01*
X182911122Y-79431312D01*
X182595160Y-79241204D01*
X182260506Y-79086376D01*
X181911058Y-78968633D01*
X181550955Y-78889369D01*
X181550950Y-78889368D01*
X181550948Y-78889368D01*
X181184370Y-78849500D01*
X180815630Y-78849500D01*
X180449052Y-78889368D01*
X180449050Y-78889368D01*
X180449044Y-78889369D01*
X180088941Y-78968633D01*
X179739493Y-79086376D01*
X179404839Y-79241204D01*
X179088877Y-79431312D01*
X178795333Y-79654458D01*
X178527624Y-79908046D01*
X178288911Y-80189081D01*
X178081980Y-80494280D01*
X177909255Y-80820074D01*
X177772771Y-81162625D01*
X177674126Y-81517912D01*
X177662379Y-81589565D01*
X177614469Y-81881801D01*
X177594506Y-82250000D01*
X167980390Y-82250000D01*
X167980390Y-82249999D01*
X167960932Y-82114660D01*
X167904129Y-81990279D01*
X167814589Y-81886944D01*
X167699562Y-81813022D01*
X167568367Y-81774500D01*
X167490479Y-81774500D01*
X167452593Y-81766964D01*
X167420475Y-81745504D01*
X163758566Y-78083595D01*
X163749145Y-78070501D01*
X163709285Y-78034163D01*
X163705977Y-78031005D01*
X162074971Y-76400000D01*
X170319609Y-76400000D01*
X170339067Y-76535339D01*
X170395870Y-76659720D01*
X170485410Y-76763055D01*
X170600437Y-76836977D01*
X170600439Y-76836978D01*
X170731633Y-76875500D01*
X170868367Y-76875500D01*
X170999561Y-76836978D01*
X171114589Y-76763055D01*
X171164170Y-76705835D01*
X171204129Y-76659720D01*
X171260932Y-76535339D01*
X171280390Y-76400000D01*
X171260932Y-76264660D01*
X171204129Y-76140279D01*
X171114589Y-76036944D01*
X170999562Y-75963022D01*
X170868367Y-75924500D01*
X170731633Y-75924500D01*
X170600437Y-75963022D01*
X170485410Y-76036944D01*
X170395870Y-76140279D01*
X170339067Y-76264660D01*
X170319609Y-76400000D01*
X162074971Y-76400000D01*
X161427098Y-75752127D01*
X172881714Y-75752127D01*
X172893347Y-75810611D01*
X172937661Y-75876932D01*
X172981976Y-75906542D01*
X173003983Y-75921247D01*
X173062466Y-75932880D01*
X174701961Y-75932880D01*
X174701962Y-75932880D01*
X174760445Y-75921247D01*
X174826766Y-75876932D01*
X174871081Y-75810611D01*
X174882714Y-75752128D01*
X174882714Y-74112632D01*
X174871081Y-74054149D01*
X174856376Y-74032142D01*
X174826766Y-73987827D01*
X174760445Y-73943513D01*
X174760444Y-73943512D01*
X174701962Y-73931880D01*
X173062466Y-73931880D01*
X173033224Y-73937696D01*
X173003982Y-73943513D01*
X172937661Y-73987827D01*
X172893347Y-74054148D01*
X172881714Y-74112633D01*
X172881714Y-75752127D01*
X161427098Y-75752127D01*
X160858566Y-75183595D01*
X160849145Y-75170501D01*
X160809273Y-75134152D01*
X160805967Y-75130995D01*
X160792796Y-75117825D01*
X160792697Y-75117757D01*
X160781954Y-75109247D01*
X160777013Y-75104743D01*
X160760933Y-75090084D01*
X160751762Y-75086531D01*
X160731587Y-75075896D01*
X160723481Y-75070344D01*
X160695797Y-75063832D01*
X160682704Y-75059777D01*
X160656175Y-75049500D01*
X160656173Y-75049500D01*
X160646348Y-75049500D01*
X160623682Y-75046870D01*
X160614119Y-75044621D01*
X160614118Y-75044621D01*
X160585947Y-75048551D01*
X160572269Y-75049500D01*
X157399500Y-75049500D01*
X157350000Y-75036237D01*
X157313763Y-75000000D01*
X157300500Y-74950500D01*
X157300500Y-73206654D01*
X173249361Y-73206654D01*
X173323955Y-73267874D01*
X173497677Y-73360730D01*
X173686180Y-73417911D01*
X173882214Y-73437219D01*
X174078247Y-73417911D01*
X174266749Y-73360730D01*
X174440472Y-73267873D01*
X174515065Y-73206654D01*
X173882213Y-72573802D01*
X173249361Y-73206654D01*
X157300500Y-73206654D01*
X157300500Y-72432379D01*
X172877374Y-72432379D01*
X172896682Y-72628413D01*
X172953863Y-72816916D01*
X173046719Y-72990638D01*
X173107938Y-73065231D01*
X173740790Y-72432379D01*
X174023636Y-72432379D01*
X174656488Y-73065231D01*
X174717707Y-72990638D01*
X174810564Y-72816915D01*
X174867745Y-72628413D01*
X174887053Y-72432379D01*
X174867745Y-72236346D01*
X174810564Y-72047843D01*
X174717708Y-71874121D01*
X174656488Y-71799527D01*
X174023636Y-72432379D01*
X173740790Y-72432379D01*
X173107938Y-71799527D01*
X173046719Y-71874122D01*
X172953863Y-72047843D01*
X172896682Y-72236346D01*
X172877374Y-72432379D01*
X157300500Y-72432379D01*
X157300500Y-71658104D01*
X173249361Y-71658104D01*
X173882213Y-72290956D01*
X174515065Y-71658104D01*
X174440472Y-71596885D01*
X174266750Y-71504029D01*
X174078247Y-71446848D01*
X173882213Y-71427540D01*
X173686180Y-71446848D01*
X173497677Y-71504029D01*
X173323956Y-71596885D01*
X173249361Y-71658104D01*
X157300500Y-71658104D01*
X157300500Y-69915479D01*
X157308036Y-69877593D01*
X157329496Y-69845475D01*
X157920476Y-69254496D01*
X157952594Y-69233036D01*
X157990480Y-69225500D01*
X158068367Y-69225500D01*
X158199561Y-69186978D01*
X158314589Y-69113055D01*
X158314588Y-69113055D01*
X158404129Y-69009720D01*
X158460932Y-68885339D01*
X158480390Y-68749999D01*
X158460932Y-68614660D01*
X158404129Y-68490279D01*
X158314589Y-68386944D01*
X158199562Y-68313022D01*
X158068367Y-68274500D01*
X157931633Y-68274500D01*
X157800437Y-68313022D01*
X157685410Y-68386944D01*
X157595870Y-68490279D01*
X157539067Y-68614660D01*
X157519240Y-68752566D01*
X157515464Y-68794753D01*
X157491535Y-68833492D01*
X156833589Y-69491438D01*
X156820497Y-69500859D01*
X156784141Y-69540737D01*
X156780989Y-69544038D01*
X156767825Y-69557203D01*
X156767754Y-69557307D01*
X156759256Y-69568034D01*
X156740083Y-69589067D01*
X156736530Y-69598238D01*
X156725895Y-69618414D01*
X156720343Y-69626519D01*
X156713830Y-69654207D01*
X156709777Y-69667296D01*
X156699500Y-69693826D01*
X156699500Y-69703652D01*
X156696870Y-69726321D01*
X156694621Y-69735881D01*
X156698551Y-69764053D01*
X156699500Y-69777731D01*
X156699500Y-74950500D01*
X156686237Y-75000000D01*
X156650000Y-75036237D01*
X156600500Y-75049500D01*
X150640169Y-75049500D01*
X150624243Y-75046901D01*
X150570346Y-75049394D01*
X150565773Y-75049500D01*
X150547151Y-75049500D01*
X150547022Y-75049524D01*
X150533427Y-75051100D01*
X150505009Y-75052414D01*
X150496014Y-75056386D01*
X150474227Y-75063132D01*
X150464565Y-75064938D01*
X150440380Y-75079912D01*
X150428259Y-75086301D01*
X150402234Y-75097792D01*
X150395284Y-75104743D01*
X150377408Y-75118903D01*
X150369048Y-75124080D01*
X150351904Y-75146781D01*
X150342907Y-75157120D01*
X150079526Y-75420503D01*
X150047408Y-75441964D01*
X150009522Y-75449500D01*
X148555252Y-75449500D01*
X148526010Y-75455316D01*
X148496768Y-75461133D01*
X148430447Y-75505447D01*
X148386133Y-75571768D01*
X148374500Y-75630253D01*
X148374500Y-76100500D01*
X148361237Y-76150000D01*
X148325000Y-76186237D01*
X148275500Y-76199500D01*
X147365165Y-76199500D01*
X147349244Y-76196902D01*
X147295358Y-76199394D01*
X147290786Y-76199500D01*
X147272154Y-76199500D01*
X147272031Y-76199523D01*
X147258420Y-76201101D01*
X147230008Y-76202414D01*
X147221015Y-76206385D01*
X147199228Y-76213132D01*
X147189566Y-76214938D01*
X147165381Y-76229912D01*
X147153261Y-76236301D01*
X147127234Y-76247794D01*
X147120285Y-76254743D01*
X147102408Y-76268904D01*
X147094047Y-76274081D01*
X147076907Y-76296777D01*
X147067910Y-76307117D01*
X145379525Y-77995504D01*
X145347407Y-78016964D01*
X145309521Y-78024500D01*
X145231633Y-78024500D01*
X145100437Y-78063022D01*
X144985410Y-78136944D01*
X144895870Y-78240279D01*
X144839067Y-78364660D01*
X144819609Y-78499999D01*
X144839067Y-78635339D01*
X144895870Y-78759720D01*
X144985410Y-78863055D01*
X145068580Y-78916504D01*
X145100439Y-78936978D01*
X145231633Y-78975500D01*
X145309521Y-78975500D01*
X145347407Y-78983036D01*
X145379525Y-79004496D01*
X148170504Y-81795475D01*
X148191964Y-81827593D01*
X148199500Y-81865479D01*
X148199500Y-84883761D01*
X148193258Y-84918358D01*
X148175319Y-84948592D01*
X148095870Y-85040279D01*
X148039067Y-85164660D01*
X148019609Y-85299999D01*
X148039067Y-85435339D01*
X148095870Y-85559720D01*
X148185409Y-85663054D01*
X148191884Y-85667215D01*
X148225920Y-85704299D01*
X148237322Y-85753326D01*
X148223141Y-85801623D01*
X148187044Y-85836704D01*
X148138362Y-85849500D01*
X143501405Y-85849500D01*
X143459097Y-85840004D01*
X143424907Y-85813340D01*
X143424739Y-85813136D01*
X143413934Y-85796972D01*
X143389094Y-85750500D01*
X143330713Y-85641276D01*
X143323292Y-85623360D01*
X143272044Y-85454418D01*
X143268259Y-85435386D01*
X143268254Y-85435339D01*
X143250476Y-85254842D01*
X143250000Y-85245139D01*
X143250000Y-76249997D01*
X143250000Y-75250000D01*
X142250003Y-75250000D01*
X128754861Y-75250000D01*
X128745157Y-75249523D01*
X128564613Y-75231740D01*
X128545579Y-75227954D01*
X128376646Y-75176710D01*
X128358718Y-75169284D01*
X128203028Y-75086065D01*
X128186895Y-75075286D01*
X128118661Y-75019288D01*
X128050430Y-74963292D01*
X128036707Y-74949569D01*
X128003224Y-74908771D01*
X127924711Y-74813101D01*
X127913935Y-74796974D01*
X127830713Y-74641276D01*
X127823292Y-74623360D01*
X127772044Y-74454418D01*
X127768259Y-74435386D01*
X127750477Y-74254843D01*
X127750000Y-74245139D01*
X127750000Y-68004861D01*
X127750477Y-67995157D01*
X127768259Y-67814613D01*
X127772045Y-67795579D01*
X127823293Y-67626635D01*
X127830711Y-67608727D01*
X127913938Y-67453020D01*
X127924707Y-67436902D01*
X128036710Y-67300426D01*
X128050426Y-67286710D01*
X128186902Y-67174707D01*
X128203020Y-67163938D01*
X128358727Y-67080711D01*
X128376635Y-67073293D01*
X128545583Y-67022044D01*
X128564609Y-67018259D01*
X128745157Y-67000476D01*
X128754861Y-67000000D01*
X128978385Y-67000000D01*
X129016270Y-67007536D01*
G37*
%TD.AperFunction*%
%TD*%
M02*
